<svg width="50" height="50" viewBox="0 0 50 50" fill="none" xmlns="http://www.w3.org/2000/svg">
<g id="Group 39501">
<path id="Vector" d="M29.6744 33.3949C29.6744 30.8174 27.5776 28.7202 25.0001 28.7202C22.4225 28.7202 20.3257 30.8174 20.3257 33.3949C20.3257 35.9724 22.4225 38.069 25.0001 38.069C27.5776 38.069 29.6744 35.9724 29.6744 33.3949ZM21.5757 33.3949C21.5757 31.5065 23.1119 29.9702 25.0001 29.9702C26.8882 29.9702 28.4244 31.5065 28.4244 33.3949C28.4244 35.2827 26.8882 36.819 25.0001 36.819C23.1119 36.819 21.5757 35.2827 21.5757 33.3949Z" fill="#E8E8E8"/>
<path id="Vector_2" d="M17.4355 47.1375V49.375C17.4355 49.7205 17.7154 50 18.0605 50H31.9399C32.2851 50 32.5649 49.7205 32.5649 49.375V47.1375C32.5649 42.9663 29.1714 39.5728 25.0002 39.5728C20.8291 39.5728 17.4355 42.9663 17.4355 47.1375ZM25.0002 40.8228C28.4823 40.8228 31.3149 43.6554 31.3149 47.1375V48.75H18.6855V47.1375C18.6855 43.6554 21.5182 40.8228 25.0002 40.8228Z" fill="#E8E8E8"/>
<path id="Vector_3" d="M2.89038 33.3949C2.89038 35.9724 4.98724 38.069 7.56476 38.069C10.1423 38.069 12.2391 35.9724 12.2391 33.3949C12.2391 30.8174 10.1423 28.7202 7.56476 28.7202C4.98724 28.7202 2.89038 30.8174 2.89038 33.3949ZM10.9891 33.3949C10.9891 35.2827 9.45288 36.819 7.56476 36.819C5.67664 36.819 4.14038 35.2827 4.14038 33.3949C4.14038 31.5065 5.67664 29.9702 7.56476 29.9702C9.45288 29.9702 10.9891 31.5065 10.9891 33.3949Z" fill="#E8E8E8"/>
<path id="Vector_4" d="M0 49.375C0 49.7205 0.279846 50 0.625 50H14.5041C14.8492 50 15.1291 49.7205 15.1291 49.375V47.1375C15.1291 42.9663 11.7358 39.5728 7.5647 39.5728C3.39355 39.5728 0 42.9663 0 47.1375V49.375ZM1.25 47.1375C1.25 43.6554 4.08264 40.8228 7.5647 40.8228C11.0464 40.8228 13.8791 43.6554 13.8791 47.1375V48.75H1.25V47.1375Z" fill="#E8E8E8"/>
<path id="Vector_5" d="M47.1097 33.3949C47.1097 30.8174 45.0129 28.7202 42.4354 28.7202C39.8578 28.7202 37.761 30.8174 37.761 33.3949C37.761 35.9724 39.8578 38.069 42.4354 38.069C45.0129 38.069 47.1097 35.9724 47.1097 33.3949ZM39.011 33.3949C39.011 31.5065 40.5472 29.9702 42.4354 29.9702C44.3235 29.9702 45.8597 31.5065 45.8597 33.3949C45.8597 35.2827 44.3235 36.819 42.4354 36.819C40.5472 36.819 39.011 35.2827 39.011 33.3949Z" fill="#E8E8E8"/>
<path id="Vector_6" d="M34.8708 47.1375V49.375C34.8708 49.7205 35.1507 50 35.4958 50H49.3749C49.7201 50 49.9999 49.7205 49.9999 49.375V47.1375C49.9999 42.9663 46.6064 39.5728 42.4352 39.5728C38.2641 39.5728 34.8708 42.9663 34.8708 47.1375ZM42.4352 40.8228C45.9173 40.8228 48.7499 43.6554 48.7499 47.1375V48.75H36.1208V47.1375C36.1208 43.6554 38.9535 40.8228 42.4352 40.8228Z" fill="#E8E8E8"/>
<path id="Vector_7" d="M0 14.538C0 16.6058 1.68213 18.288 3.75305 18.288L9.51019 18.2611L9.5224 22.5043C9.52301 22.7448 9.66156 22.9633 9.87854 23.0664C9.96429 23.1073 10.0562 23.1274 10.1474 23.1274C10.2875 23.1274 10.4266 23.0804 10.5399 22.9889L16.3672 18.288H18.75C20.8179 18.288 22.5 16.6058 22.5 14.538V3.75C22.5 1.68213 20.8179 0 18.75 0H3.75C1.68213 0 0 1.68213 0 3.75V14.538ZM1.25 3.75C1.25 2.37122 2.37152 1.25 3.75 1.25H18.75C20.1285 1.25 21.25 2.37122 21.25 3.75V14.538C21.25 15.9167 20.1285 17.038 18.75 17.038H16.1465C16.0037 17.038 15.8652 17.0868 15.7541 17.1765L10.7687 21.1981L10.7584 17.6312C10.7578 17.4652 10.6915 17.3065 10.5737 17.1893C10.4565 17.0734 10.2982 17.0081 10.1334 17.0081H10.1303L3.75 17.038C2.37152 17.038 1.25 15.9167 1.25 14.538V3.75Z" fill="#E8E8E8"/>
<path id="Vector_8" d="M50 3.75C50 1.68213 48.3179 0 46.25 0H31.25C29.1821 0 27.5 1.68213 27.5 3.75V14.538C27.5 16.6058 29.1821 18.288 31.25 18.288H33.6328L39.4601 22.9889C39.5734 23.0804 39.7125 23.1274 39.8526 23.1274C39.9438 23.1274 40.0357 23.1073 40.1215 23.0664C40.3384 22.9633 40.477 22.7448 40.4776 22.5043L40.4898 18.2611L46.25 18.288C48.3179 18.288 50 16.6058 50 14.538V3.75ZM48.75 14.538C48.75 15.9167 47.6285 17.038 46.2531 17.038L39.8697 17.0081H39.8666C39.7018 17.0081 39.5435 17.0734 39.4263 17.1893C39.3085 17.3065 39.2422 17.4652 39.2416 17.6312L39.2313 21.1981L34.2459 17.1765C34.1348 17.0868 33.9963 17.038 33.8535 17.038H31.25C29.8715 17.038 28.75 15.9167 28.75 14.538V3.75C28.75 2.37122 29.8715 1.25 31.25 1.25H46.25C47.6285 1.25 48.75 2.37122 48.75 3.75V14.538Z" fill="#E8E8E8"/>
</g>
</svg>
