<svg width="50" height="46" viewBox="0 0 50 46" fill="none" xmlns="http://www.w3.org/2000/svg">
<g id="Group 39506">
<path id="Vector" d="M21.9553 11.8436H43.5026C43.8477 11.8436 44.1276 11.5861 44.1276 11.268C44.1276 10.9498 43.8477 10.6924 43.5026 10.6924H21.9553C21.6102 10.6924 21.3303 10.9498 21.3303 11.268C21.3303 11.5861 21.6102 11.8436 21.9553 11.8436Z" fill="#E8E8E8"/>
<path id="Vector_2" d="M21.9553 15.7303H43.5026C43.8477 15.7303 44.1276 15.4729 44.1276 15.1547C44.1276 14.8365 43.8477 14.5791 43.5026 14.5791H21.9553C21.6102 14.5791 21.3303 14.8365 21.3303 15.1547C21.3303 15.4729 21.6102 15.7303 21.9553 15.7303Z" fill="#E8E8E8"/>
<path id="Vector_3" d="M49.375 4.79089H34.5418V0.575604C34.5418 0.257448 34.262 0 33.9168 0H0.624992C0.279843 0 0 0.257448 0 0.575604V40.6341C0 40.9522 0.279843 41.2097 0.624992 41.2097H15.4579V45.4244C15.4579 45.7425 15.7377 46 16.0829 46H49.375C49.7202 46 50 45.7425 50 45.4244V5.3665C50 5.04834 49.7202 4.79089 49.375 4.79089ZM1.24998 40.0585V1.15121H33.2918V4.79089H16.0829C15.7377 4.79089 15.4579 5.04834 15.4579 5.3665V6.80607H6.49711C6.15196 6.80607 5.87212 7.06352 5.87212 7.38167C5.87212 7.69983 6.15196 7.95728 6.49711 7.95728H15.4579V10.6925H6.49711C6.15196 10.6925 5.87212 10.95 5.87212 11.2681C5.87212 11.5863 6.15196 11.8437 6.49711 11.8437H15.4579V14.579H6.49711C6.15196 14.579 5.87212 14.8364 5.87212 15.1546C5.87212 15.4727 6.15196 15.7302 6.49711 15.7302H15.4579V18.466H6.49711C6.15196 18.466 5.87212 18.7234 5.87212 19.0416C5.87212 19.3598 6.15196 19.6172 6.49711 19.6172H15.4579V40.0585H1.24998ZM16.7079 5.9421H48.75V38.2929H42.1845C41.8394 38.2929 41.5596 38.5503 41.5596 38.8685V44.8488H16.7079V5.9421ZM47.6245 39.4441L42.8095 43.8786V39.4441H47.6245ZM43.5236 44.8488L48.75 40.0354V44.8488H43.5236Z" fill="#E8E8E8"/>
<path id="Vector_4" d="M21.9553 19.6173H43.5026C43.8477 19.6173 44.1276 19.3598 44.1276 19.0417C44.1276 18.7235 43.8477 18.4661 43.5026 18.4661H21.9553C21.6102 18.4661 21.3303 18.7235 21.3303 19.0417C21.3303 19.3598 21.6102 19.6173 21.9553 19.6173Z" fill="#E8E8E8"/>
<path id="Vector_5" d="M21.9553 23.5037H43.5026C43.8477 23.5037 44.1276 23.2463 44.1276 22.9281C44.1276 22.61 43.8477 22.3525 43.5026 22.3525H21.9553C21.6102 22.3525 21.3303 22.61 21.3303 22.9281C21.3303 23.2463 21.6102 23.5037 21.9553 23.5037Z" fill="#E8E8E8"/>
<path id="Vector_6" d="M43.5024 29.4683H39.219C38.8738 29.4683 38.594 29.7257 38.594 30.0439C38.594 30.362 38.8738 30.6195 39.219 30.6195H43.5024C43.8475 30.6195 44.1274 30.362 44.1274 30.0439C44.1274 29.7257 43.8475 29.4683 43.5024 29.4683Z" fill="#E8E8E8"/>
<path id="Vector_7" d="M43.5024 34.5059C43.8475 34.5059 44.1274 34.2485 44.1274 33.9303C44.1274 33.6122 43.8475 33.3547 43.5024 33.3547H39.219C38.8738 33.3547 38.594 33.6122 38.594 33.9303C38.594 34.2485 38.8738 34.5059 39.219 34.5059H43.5024Z" fill="#E8E8E8"/>
<path id="Vector_8" d="M6.49706 30.6195H10.7808C11.1259 30.6195 11.4058 30.362 11.4058 30.0439C11.4058 29.7257 11.1259 29.4683 10.7808 29.4683H6.49706C6.15191 29.4683 5.87207 29.7257 5.87207 30.0439C5.87207 30.362 6.15191 30.6195 6.49706 30.6195Z" fill="#E8E8E8"/>
<path id="Vector_9" d="M10.7808 33.3547H6.49706C6.15191 33.3547 5.87207 33.6122 5.87207 33.9303C5.87207 34.2485 6.15191 34.5059 6.49706 34.5059H10.7808C11.1259 34.5059 11.4058 34.2485 11.4058 33.9303C11.4058 33.6122 11.1259 33.3547 10.7808 33.3547Z" fill="#E8E8E8"/>
<path id="Vector_10" d="M31.5615 32.1606H24.9573C24.6121 32.1606 24.3323 32.4181 24.3323 32.7362C24.3323 33.0544 24.6121 33.3119 24.9573 33.3119H31.5615C31.9066 33.3119 32.1865 33.0544 32.1865 32.7362C32.1865 32.4181 31.9066 32.1606 31.5615 32.1606Z" fill="#E8E8E8"/>
<path id="Vector_11" d="M31.5615 35.353H24.9573C24.6121 35.353 24.3323 35.6105 24.3323 35.9286C24.3323 36.2468 24.6121 36.5042 24.9573 36.5042H31.5615C31.9066 36.5042 32.1865 36.2468 32.1865 35.9286C32.1865 35.6105 31.9066 35.353 31.5615 35.353Z" fill="#E8E8E8"/>
<path id="Vector_12" d="M35.2748 32.5864V30.9023C35.2748 30.6966 35.1557 30.5066 34.9623 30.4037L33.3787 29.5617L32.4647 28.1035C32.353 27.9254 32.1467 27.8157 31.9234 27.8157H30.0951L28.5115 26.9737C28.3181 26.8714 28.08 26.8714 27.8865 26.9737L26.303 27.8157H24.4747C24.2513 27.8157 24.045 27.9254 23.9333 28.1035L23.0194 29.5617L21.4358 30.4037C21.2423 30.5066 21.1233 30.6966 21.1233 30.9023V32.5864L20.209 34.0445C20.0976 34.2227 20.0976 34.4419 20.209 34.6201L21.1233 36.0783V37.7623C21.1233 37.9681 21.2423 38.1581 21.4358 38.2609L23.0194 39.103L23.9333 40.5611C24.045 40.7393 24.2513 40.8489 24.4747 40.8489H26.303L27.8865 41.691C27.9833 41.7421 28.091 41.768 28.199 41.768C28.3071 41.768 28.4148 41.7421 28.5115 41.691L30.0951 40.8489H31.9234C32.1467 40.8489 32.353 40.7393 32.4647 40.5611L33.3787 39.103L34.9623 38.2609C35.1557 38.1581 35.2748 37.9681 35.2748 37.7623V36.0783L36.1891 34.6201C36.3004 34.4419 36.3004 34.2227 36.1891 34.0445L35.2748 32.5864ZM34.1084 35.6364C34.0538 35.7241 34.0248 35.8231 34.0248 35.9242V37.4301L32.6088 38.1828C32.5139 38.2334 32.4348 38.3059 32.3799 38.3936L31.5627 39.6977H29.9275C29.818 39.6977 29.71 39.7241 29.615 39.7747L28.199 40.5279L26.783 39.7747C26.6881 39.7241 26.5801 39.6977 26.4705 39.6977H24.8354L24.0182 38.3936C23.9633 38.3059 23.8842 38.2334 23.7893 38.1828L22.3733 37.4301V35.9242C22.3733 35.8231 22.3443 35.7241 22.2897 35.6364L21.4721 34.3323L22.2897 33.0282C22.3443 32.9405 22.3733 32.8416 22.3733 32.7404V31.2345L23.7893 30.4819C23.8842 30.4313 23.9633 30.3587 24.0182 30.2711L24.8354 28.967H26.4705C26.5801 28.967 26.6881 28.9405 26.783 28.8899L28.199 28.1367L29.615 28.8899C29.71 28.9405 29.818 28.967 29.9275 28.967H31.5627L32.3799 30.2711C32.4348 30.3587 32.5139 30.4313 32.6088 30.4819L34.0248 31.2345V32.7404C34.0248 32.8416 34.0538 32.9405 34.1084 33.0282L34.926 34.3323L34.1084 35.6364Z" fill="#E8E8E8"/>
</g>
</svg>
