<svg width="51" height="51" viewBox="0 0 51 51" fill="none" xmlns="http://www.w3.org/2000/svg">
<g id="Group 39504">
<g id="Group 39503">
<path id="Vector" d="M50.8855 30.1916L44.1436 20.1767C44.0481 20.0348 43.8996 19.9373 43.7312 19.9059C43.5641 19.8742 43.3895 19.9124 43.2491 20.0105L41.7508 21.0597C40.1641 22.1711 37.1092 21.6993 34.943 20.7914L32.0248 19.5685C29.8964 18.6769 27.5502 18.7462 25.5044 19.6908C23.4402 18.7392 21.0709 18.688 18.969 19.5685L16.0511 20.7914C13.8485 21.7149 10.7625 22.2091 9.1935 21.1098L7.69517 20.0606C7.5548 19.9626 7.38051 19.9246 7.21275 19.9563C7.04436 19.9875 6.89559 20.0855 6.80035 20.2274L0.108307 30.1922C-0.0852863 30.4804 -0.0124555 30.8707 0.27171 31.0699L5.10524 34.4543L4.25562 35.6446C3.14449 37.2017 3.50708 39.3726 5.06392 40.4841C5.65871 40.9086 6.35589 41.1302 7.07207 41.1302C7.2641 41.1302 7.4577 41.1143 7.65129 41.082C7.66887 41.0791 7.68475 41.0715 7.70226 41.0683C7.61343 41.4878 7.59775 41.9236 7.67059 42.3593C7.8231 43.2731 8.32264 44.073 9.07678 44.6115C9.68651 45.0466 10.3899 45.2557 11.0874 45.2557C11.4797 45.2557 11.8695 45.1874 12.24 45.058C12.2392 45.2545 12.2473 45.452 12.2804 45.6498C12.4329 46.5639 12.9328 47.3638 13.6869 47.9019C14.2966 48.3371 15.0004 48.5465 15.6979 48.5462C16.3233 48.5462 16.9412 48.3727 17.4841 48.0484C17.4868 48.0667 17.4847 48.0849 17.4878 48.1033C17.6403 49.0174 18.1399 49.8173 18.8943 50.3558C19.5041 50.7909 20.2075 51.0001 20.905 51.0001C21.9887 51.0001 23.0575 50.4949 23.7339 49.5475L24.7092 48.1812L27.0623 49.8288C27.6664 50.2518 28.3599 50.4548 29.0471 50.4548C30.1417 50.4548 31.2202 49.9393 31.8943 48.9767C32.3696 48.2976 32.5666 47.4888 32.4912 46.6726C32.9823 46.9269 33.5206 47.0622 34.0715 47.0622C34.2738 47.0622 34.478 47.0445 34.6812 47.0087C35.5941 46.8478 36.3893 46.3411 36.9206 45.5819C37.4166 44.874 37.6143 44.0254 37.5101 43.1741C37.8984 43.3212 38.3066 43.4054 38.724 43.4054C38.9263 43.4054 39.1304 43.3877 39.3337 43.3519C40.2466 43.191 41.0418 42.6843 41.5731 41.9251C42.0449 41.2518 42.2422 40.4507 42.1721 39.6415C42.7238 39.9708 43.333 40.1398 43.9404 40.1398C45.035 40.1398 46.1132 39.6241 46.7873 38.6614C47.3186 37.9023 47.5228 36.9817 47.3619 36.0691C47.2499 35.4337 46.9614 34.8621 46.5457 34.3899L50.7532 31.0466C51.0137 30.8399 51.0713 30.4676 50.8855 30.1916ZM7.4412 39.8246C6.86447 39.9217 6.28182 39.7872 5.80468 39.4464C4.81991 38.7433 4.59052 37.3701 5.29331 36.3853L6.60769 34.544C6.94819 34.0666 7.45427 33.7506 8.03256 33.6542C8.60961 33.5567 9.19163 33.6921 9.66877 34.0326C10.6537 34.7353 10.8831 36.1085 10.1805 37.0932L9.52295 38.0144L8.86576 38.935C8.52526 39.4122 8.01949 39.7281 7.4412 39.8246ZM9.81754 43.5738C9.34041 43.2333 9.02449 42.7275 8.92801 42.1492C8.83121 41.5709 8.96567 40.9898 9.30617 40.5127L10.5606 38.7551L11.2178 37.8345C11.2179 37.8343 11.218 37.8341 11.2181 37.8339L11.8151 36.9975C12.2428 36.3981 12.9188 36.0787 13.6044 36.0787C14.0455 36.0787 14.4905 36.211 14.8762 36.4862C15.8613 37.1893 16.0907 38.5628 15.3876 39.5475L12.8786 43.0624C12.1758 44.0475 10.802 44.2763 9.81754 43.5738ZM16.0639 47.2427C15.4878 47.3395 14.9054 47.2054 14.4277 46.8643C13.9502 46.5238 13.6343 46.0177 13.5378 45.4397C13.4413 44.8614 13.5755 44.2803 13.9163 43.8032L16.4252 40.2883C16.7657 39.8109 17.2718 39.4949 17.8501 39.3985C17.9721 39.3779 18.0944 39.368 18.2161 39.368C18.6693 39.368 19.11 39.5083 19.4863 39.7769C19.9635 40.1174 20.2794 40.6232 20.3758 41.2015C20.4726 41.7798 20.3382 42.3609 19.9977 42.838L18.7432 44.5956L18.086 45.5163C18.0859 45.5165 18.0858 45.5166 18.0857 45.5168L17.4888 46.3532C17.1483 46.8303 16.6422 47.1462 16.0639 47.2427ZM22.6962 48.8067C21.9934 49.7921 20.6196 50.0212 19.6351 49.3181C19.158 48.9776 18.8417 48.4715 18.7452 47.8932C18.6488 47.3155 18.7829 46.7346 19.1234 46.2576L19.7809 45.3364L20.4381 44.4157C20.7786 43.9383 21.2847 43.6223 21.8627 43.5259C22.4403 43.4297 23.022 43.5635 23.4992 43.9043C23.9763 44.2448 24.2922 44.7509 24.3887 45.3289C24.4819 45.8859 24.3557 46.4432 24.0425 46.91C24.0379 46.916 24.0311 46.9188 24.0267 46.9249C24.0168 46.9391 24.0154 46.9559 24.0068 46.9706L22.6962 48.8067ZM45.7428 37.9303C45.4067 38.4106 44.9037 38.7308 44.3263 38.8326C43.7493 38.9347 43.166 38.8052 42.6867 38.4691L40.5764 36.9914L34.8443 32.9778C34.5555 32.7764 34.1586 32.8459 33.9563 33.1344C33.7546 33.4229 33.8247 33.8204 34.1129 34.0224L34.9549 34.6119C34.9548 34.6118 34.955 34.612 34.9549 34.6119L39.8449 38.036L39.9901 38.1376C40.4703 38.4738 40.7909 38.9767 40.8927 39.5541C40.9945 40.1314 40.8653 40.7138 40.5289 41.194C40.1927 41.674 39.6897 41.9945 39.1124 42.0963C38.5335 42.1968 37.9521 42.0689 37.4728 41.7328L36.0692 40.75C36.0692 40.75 36.0692 40.75 36.0692 40.75L31.5955 37.6175C31.307 37.4162 30.9096 37.4856 30.7076 37.7741C30.5059 38.0626 30.5759 38.4601 30.8641 38.6621L35.3378 41.7945C35.818 42.1306 36.1385 42.6336 36.2402 43.2109C36.342 43.7882 36.2128 44.3706 35.8764 44.8508C35.5402 45.3308 35.0373 45.6513 34.4599 45.7531C33.881 45.8549 33.2999 45.7257 32.8203 45.3896L28.3468 42.2572C28.0583 42.0559 27.6611 42.1262 27.4588 42.4138C27.2571 42.7023 27.3272 43.0998 27.6154 43.3018L28.4574 43.8913C28.4573 43.8913 28.4574 43.8914 28.4574 43.8913L29.1287 44.3614L30.3119 45.1899C30.7914 45.5261 31.1116 46.0286 31.2133 46.6056C31.3151 47.183 31.1863 47.7653 30.8498 48.2452C30.1554 49.2369 28.7841 49.4778 27.7934 48.7843L25.3932 47.1035C25.6699 46.4861 25.7602 45.8013 25.6461 45.1188C25.4936 44.205 24.9941 43.4051 24.2399 42.8666C23.4855 42.3282 22.5661 42.1147 21.6526 42.2684C21.635 42.2714 21.6192 42.2789 21.6017 42.2821C21.6905 41.8627 21.7061 41.427 21.6333 40.9914C21.4808 40.0776 20.9812 39.2777 20.2271 38.7392C19.4726 38.2008 18.5538 37.9885 17.64 38.141C17.441 38.1742 17.2503 38.2309 17.0636 38.296C17.0693 37.2059 16.5697 36.1287 15.6169 35.4485C14.4609 34.6236 12.9675 34.6147 11.8194 35.3003C11.8167 35.2825 11.8187 35.2649 11.8157 35.2471C11.6632 34.3333 11.1637 33.5334 10.4095 32.9949C9.65507 32.4565 8.73628 32.2448 7.82247 32.3967C7.06767 32.5227 6.40029 32.8958 5.88413 33.4431L1.51513 30.3839L7.49629 21.4777L8.46208 22.1543C10.5729 23.6312 14.1348 22.9769 16.5441 21.9673L19.462 20.7444C20.9373 20.1262 22.5688 20.0576 24.0789 20.5124L18.2541 24.61C16.6873 25.7072 16.3051 27.8747 17.4022 29.4421C17.9338 30.2012 18.7291 30.7076 19.6419 30.8688C20.5542 31.0294 21.4752 30.8256 22.234 30.294L27.5706 26.5615C29.2964 25.3548 31.6195 25.3486 33.3472 26.5435L45.2031 34.8733C45.2033 34.8734 45.2036 34.8734 45.2038 34.8736C45.2037 34.8735 45.2039 34.8737 45.2038 34.8736C45.6837 35.2097 46.0046 35.713 46.1063 36.2904C46.2081 36.8677 46.0789 37.4501 45.7428 37.9303ZM45.5461 33.5561L34.0762 25.4977C32.9968 24.751 31.7347 24.3785 30.472 24.3785C29.1984 24.3785 27.9247 24.7582 26.8398 25.517L21.5029 29.2497C21.0232 29.5856 20.4409 29.7157 19.8632 29.6133C19.2859 29.5115 18.7829 29.1909 18.4468 28.711C17.7527 27.7194 17.9945 26.3483 18.9865 25.6536L24.9611 21.4506C26.8964 20.0945 29.353 19.8309 31.5321 20.7444L34.45 21.9673C36.8244 22.9626 40.3521 23.5948 42.4822 22.1042L43.4486 21.4273L49.4989 30.415L45.5461 33.5561Z" fill="#E8E8E8"/>
<path id="Vector_2" d="M21.7354 15.2848L25.1874 17.2024C25.2839 17.256 25.3903 17.2827 25.4971 17.2827C25.6038 17.2827 25.7103 17.256 25.8068 17.2024L29.2584 15.2848C31.6158 13.9758 33.0802 11.4871 33.0802 8.79045V3.45667C33.0802 3.11804 32.8153 2.83823 32.477 2.82018C31.2837 2.75606 30.3497 1.80708 30.3036 0.613149C30.2905 0.270782 30.0095 0 29.6668 0H21.3273C20.9847 0 20.7036 0.270782 20.6905 0.613149C20.6445 1.80708 19.7104 2.75606 18.5171 2.82018C18.1788 2.83823 17.9139 3.11804 17.9139 3.45667V8.79045C17.9139 11.4871 19.3783 13.9758 21.7354 15.2848ZM19.1888 4.01006C20.5489 3.70473 21.6012 2.63841 21.8888 1.27485H29.1053C29.3929 2.63841 30.4452 3.70473 31.8054 4.01006V8.79045C31.8054 11.0242 30.5924 13.0859 28.6394 14.1706L25.4971 15.916L22.3544 14.1706C20.4017 13.0859 19.1888 11.0242 19.1888 8.79045V4.01006Z" fill="#E8E8E8"/>
</g>
</g>
</svg>
