<svg width="26" height="26" viewBox="0 0 26 26" fill="none" xmlns="http://www.w3.org/2000/svg">
<path d="M12.7395 8.80713C14.9543 8.80713 16.7825 10.6353 16.7825 12.8501C16.7825 15.1001 14.9543 16.8931 12.7395 16.8931C10.4895 16.8931 8.69653 15.1001 8.69653 12.8501C8.69653 10.6353 10.4895 8.80713 12.7395 8.80713ZM12.7395 15.4868C14.1809 15.4868 15.3411 14.3267 15.3411 12.8501C15.3411 11.4087 14.1809 10.2485 12.7395 10.2485C11.2629 10.2485 10.1028 11.4087 10.1028 12.8501C10.1028 14.3267 11.2981 15.4868 12.7395 15.4868ZM17.8723 8.6665C17.8723 9.19385 17.4504 9.61572 16.9231 9.61572C16.3958 9.61572 15.9739 9.19385 15.9739 8.6665C15.9739 8.13916 16.3958 7.71729 16.9231 7.71729C17.4504 7.71729 17.8723 8.13916 17.8723 8.6665ZM20.5442 9.61572C20.6145 10.9165 20.6145 14.8188 20.5442 16.1196C20.4739 17.3853 20.1926 18.4751 19.2786 19.4243C18.3645 20.3384 17.2395 20.6196 15.9739 20.6899C14.6731 20.7603 10.7708 20.7603 9.46997 20.6899C8.20435 20.6196 7.1145 20.3384 6.16528 19.4243C5.25122 18.4751 4.96997 17.3853 4.89966 16.1196C4.82935 14.8188 4.82935 10.9165 4.89966 9.61572C4.96997 8.3501 5.25122 7.2251 6.16528 6.31104C7.1145 5.39697 8.20435 5.11572 9.46997 5.04541C10.7708 4.9751 14.6731 4.9751 15.9739 5.04541C17.2395 5.11572 18.3645 5.39697 19.2786 6.31104C20.1926 7.2251 20.4739 8.3501 20.5442 9.61572ZM18.8567 17.4907C19.2786 16.4712 19.1731 14.0103 19.1731 12.8501C19.1731 11.7251 19.2786 9.26416 18.8567 8.20947C18.5754 7.5415 18.0481 6.979 17.3801 6.73291C16.3254 6.31104 13.8645 6.4165 12.7395 6.4165C11.5793 6.4165 9.11841 6.31104 8.09888 6.73291C7.39575 7.01416 6.86841 7.5415 6.58716 8.20947C6.16528 9.26416 6.27075 11.7251 6.27075 12.8501C6.27075 14.0103 6.16528 16.4712 6.58716 17.4907C6.86841 18.1938 7.39575 18.7212 8.09888 19.0024C9.11841 19.4243 11.5793 19.3188 12.7395 19.3188C13.8645 19.3188 16.3254 19.4243 17.3801 19.0024C18.0481 18.7212 18.6106 18.1938 18.8567 17.4907Z" fill="#650340"/>
</svg>
