<svg width="26" height="26" viewBox="0 0 26 26" fill="none" xmlns="http://www.w3.org/2000/svg">
<path d="M9 19.6001H5.73047V9.08838H9V19.6001ZM7.34766 7.68213C6.32812 7.68213 5.48438 6.80322 5.48438 5.74854C5.48438 4.729 6.32812 3.88525 7.34766 3.88525C8.40234 3.88525 9.24609 4.729 9.24609 5.74854C9.24609 6.80322 8.40234 7.68213 7.34766 7.68213ZM21.1992 19.6001H17.9648V14.5024C17.9648 13.272 17.9297 11.7251 16.2422 11.7251C14.5547 11.7251 14.3086 13.0259 14.3086 14.397V19.6001H11.0391V9.08838H14.168V10.5298H14.2031C14.6602 9.72119 15.7148 8.84229 17.2969 8.84229C20.6016 8.84229 21.2344 11.022 21.2344 13.8345V19.6001H21.1992Z" fill="#650340"/>
</svg>
