<svg width="80" height="80" viewBox="0 0 80 80" fill="none" xmlns="http://www.w3.org/2000/svg">
<g id="Group 1000001874">
<path id="Vector" d="M1 71.3677C0.447754 71.3677 0 71.8154 0 72.3677V78.9189C0 79.4712 0.447754 79.9189 1 79.9189H79C79.5522 79.9189 80 79.4712 80 78.9189V72.3677C80 71.8154 79.5522 71.3677 79 71.3677H76.8433V48.2393H79C79.5522 48.2393 80 47.7915 80 47.2393V40.688C80 40.1357 79.5522 39.688 79 39.688H77.4639V37.8784C77.4639 30.1182 71.7655 23.8033 64.7402 23.7393V19.3634C67.7006 17.4982 69.6743 14.2284 69.6743 10.5034C69.6743 4.71191 64.917 0 59.0693 0C53.2217 0 48.4639 4.71191 48.4639 10.5034C48.4639 14.2606 50.4728 17.5537 53.4761 19.4103V23.7426C46.4758 23.8405 40.8062 30.1414 40.8062 37.8828V39.688H39.1943V37.8784C39.1943 31.8733 35.7766 26.7437 30.9779 24.6949C32.9536 23.7585 33.9548 22.5149 34.0225 22.4282C34.2036 22.1973 34.2739 21.8984 34.2148 21.6108C34.1562 21.3232 33.9741 21.0762 33.7168 20.9351C32.2233 20.1148 31.014 16.7029 30.5598 14.6087C31.103 13.3469 31.4048 11.9595 31.4048 10.5034C31.4048 4.71191 26.647 0 20.7993 0C14.9517 0 10.1943 4.71191 10.1943 10.5034C10.1943 12.0084 10.5214 13.4372 11.0996 14.7326C11.0995 14.7331 11.0992 14.7334 11.0991 14.7339C10.8574 16.042 9.78027 19.9893 8.05762 20.9351C7.80029 21.0762 7.61816 21.3232 7.55957 21.6108C7.50049 21.8984 7.5708 22.1973 7.75195 22.4282C7.8197 22.5146 8.81519 23.7504 10.7781 24.6859C5.96588 26.7286 2.53613 31.8661 2.53613 37.8828V39.688H1C0.447754 39.688 0 40.1357 0 40.688V47.2393C0 47.7915 0.447754 48.2393 1 48.2393H3.15674V71.3677H1ZM78 77.9189H2V73.3677H78V77.9189ZM67.5706 9.25281C64.8995 8.56207 63.3619 7.21228 62.6373 6.38745C63.4547 5.83374 64.2827 5.19507 65.1137 4.45978C66.4081 5.72418 67.2911 7.39197 67.5706 9.25281ZM59.0693 2C60.6838 2 62.1905 2.44977 63.483 3.21735C57.9003 7.99054 52.5996 8.02527 50.8876 7.87976C52.0098 4.4718 55.251 2 59.0693 2ZM50.4639 10.5034C50.4639 10.2837 50.4806 10.068 50.4973 9.85242C50.8172 9.88477 51.2643 9.91504 51.8193 9.91504C53.8048 9.91504 57.1614 9.51715 60.9161 7.44397C61.8055 8.53229 63.8809 10.5073 67.6324 11.321C67.2144 15.6271 63.5347 19.0063 59.0693 19.0063C54.3242 19.0063 50.4639 15.1919 50.4639 10.5034ZM59.0693 21.0063C60.3612 21.0063 61.5944 20.765 62.7402 20.3442V24.1709C60.501 25.5166 57.7241 25.5176 55.4819 24.1709L55.4774 20.373C56.6012 20.7755 57.8071 21.0063 59.0693 21.0063ZM42.8062 37.8828C42.8062 31.1836 47.666 25.7334 53.6396 25.7334H54.1992L54.4526 25.8857C55.8906 26.7495 57.501 27.1812 59.1108 27.1807C60.7358 27.1807 62.3604 26.7412 63.8076 25.8623L64.0198 25.7334H64.6338C70.6055 25.7334 75.4639 31.1816 75.4639 37.8784V39.688H70.21V37.1719C70.21 36.6196 69.7622 36.1719 69.21 36.1719C68.6577 36.1719 68.21 36.6196 68.21 37.1719V39.688H49.915V37.1719C49.915 36.6196 49.4673 36.1719 48.915 36.1719C48.3628 36.1719 47.915 36.6196 47.915 37.1719V39.688H42.8062V37.8828ZM12.1943 10.5034C12.1943 10.2837 12.2111 10.0681 12.2277 9.85248C12.5477 9.88483 12.9946 9.91504 13.5493 9.91504C15.5351 9.91504 18.8917 9.51715 22.6464 7.44409C23.5359 8.53247 25.6115 10.5073 29.3629 11.321C28.9448 15.6271 25.2651 19.0063 20.7993 19.0063C16.0547 19.0063 12.1943 15.1919 12.1943 10.5034ZM20.7993 21.0063C22.0912 21.0063 23.3243 20.765 24.4702 20.3443V24.1709C22.2314 25.5166 19.4551 25.5176 17.2124 24.1709L17.2079 20.3731C18.3315 20.7755 19.5373 21.0063 20.7993 21.0063ZM31.7251 21.8906C30.8314 22.6189 29.0949 23.6416 26.4702 23.717V19.3635C27.4879 18.7224 28.3869 17.9171 29.1304 16.9813C29.6298 18.559 30.4677 20.6118 31.7251 21.8906ZM29.301 9.25281C26.6304 8.56207 25.0925 7.21234 24.3675 6.38763C25.1849 5.83386 26.013 5.19519 26.8441 4.45978C28.1386 5.72412 29.0215 7.39203 29.301 9.25281ZM20.7993 2C22.414 2 23.9207 2.44977 25.2133 3.21735C19.6306 7.98938 14.3307 8.02502 12.6182 7.87958C13.7403 4.47168 16.9814 2 20.7993 2ZM12.5648 17.1087C13.3076 18.0151 14.2028 18.79 15.2065 19.4105V23.7178C12.6331 23.6235 10.9361 22.6127 10.0527 21.894C11.3097 20.6265 12.1061 18.6237 12.5648 17.1087ZM4.53613 37.8828C4.53613 31.1836 9.396 25.7334 15.3701 25.7334H15.9296L16.1831 25.8857C17.6211 26.7495 19.231 27.1812 20.8413 27.1807C22.4658 27.1807 24.0913 26.7412 25.5386 25.8623L25.7505 25.7334H26.3638C32.3359 25.7334 37.1943 31.1816 37.1943 37.8784V39.688H31.9404V37.1719C31.9404 36.6196 31.4927 36.1719 30.9404 36.1719C30.3882 36.1719 29.9404 36.6196 29.9404 37.1719V39.688H11.6455V37.1719C11.6455 36.6196 11.1978 36.1719 10.6455 36.1719C10.0933 36.1719 9.64551 36.6196 9.64551 37.1719V39.688H4.53613V37.8828ZM2 41.688H78V46.2393H2V41.688ZM5.15674 48.2393H74.8433V71.3677H5.15674V48.2393Z" fill="#650340"/>
<path id="Vector_2" d="M26.4014 52.4814H10.4521C9.8999 52.4814 9.45215 52.9292 9.45215 53.4814V66.3164C9.45215 66.8687 9.8999 67.3164 10.4521 67.3164H26.4014C26.9536 67.3164 27.4014 66.8687 27.4014 66.3164V53.4814C27.4014 52.9292 26.9536 52.4814 26.4014 52.4814ZM25.4014 65.3164H11.4521V54.4814H25.4014V65.3164Z" fill="#650340"/>
<path id="Vector_3" d="M47.9746 52.4814H32.0254C31.4731 52.4814 31.0254 52.9292 31.0254 53.4814V66.3164C31.0254 66.8687 31.4731 67.3164 32.0254 67.3164H47.9746C48.5269 67.3164 48.9746 66.8687 48.9746 66.3164V53.4814C48.9746 52.9292 48.5269 52.4814 47.9746 52.4814ZM46.9746 65.3164H33.0254V54.4814H46.9746V65.3164Z" fill="#650340"/>
<path id="Vector_4" d="M69.5479 52.4814H53.5986C53.0464 52.4814 52.5986 52.9292 52.5986 53.4814V66.3164C52.5986 66.8687 53.0464 67.3164 53.5986 67.3164H69.5479C70.1001 67.3164 70.5479 66.8687 70.5479 66.3164V53.4814C70.5479 52.9292 70.1001 52.4814 69.5479 52.4814ZM68.5479 65.3164H54.5986V54.4814H68.5479V65.3164Z" fill="#650340"/>
</g>
</svg>
