<svg width="80" height="81" viewBox="0 0 80 81" fill="none" xmlns="http://www.w3.org/2000/svg">
<g id="Group 1000001884">
<path id="Vector" d="M79 69.1943H75.7305V14.1528C75.7305 13.6006 75.2832 13.1528 74.7305 13.1528H63.3984V7.97217C63.3984 7.41992 62.9512 6.97217 62.3984 6.97217H51.0947V1C51.0947 0.447754 50.6475 0 50.0947 0H30.5889C30.0361 0 29.5889 0.447754 29.5889 1V6.97217H17.8516C17.2988 6.97217 16.8516 7.41992 16.8516 7.97217V13.1528H5.51953C4.9668 13.1528 4.51953 13.6006 4.51953 14.1528V69.1943H1C0.447266 69.1943 0 69.6421 0 70.1943V79.0186C0 79.5708 0.447266 80.0186 1 80.0186H79C79.5527 80.0186 80 79.5708 80 79.0186V70.1943C80 69.6421 79.5527 69.1943 79 69.1943ZM63.3984 69.1943V32.0093H73.7305V69.1943H63.3984ZM73.7305 30.0093H63.3984V25.8223H73.7305V30.0093ZM73.7305 15.1528V23.8223H63.3984V15.1528H73.7305ZM61.3984 8.97217V69.1943H51.0947V8.97217H61.3984ZM49.0947 2V69.1943H31.5889V2H49.0947ZM29.5889 22.3213H18.8516V18.1343H29.5889V22.3213ZM18.8516 24.3213H29.5889V69.1943H18.8516V24.3213ZM29.5889 8.97217V16.1343H18.8516V8.97217H29.5889ZM6.51953 15.1528H16.8516V69.1943H6.51953V15.1528ZM78 78.0186H2V71.1943H78V78.0186Z" fill="#650340"/>
<path id="Vector_2" d="M36.042 41.1724H44.2373C44.79 41.1724 45.2373 40.7246 45.2373 40.1724V9.65967C45.2373 9.10742 44.79 8.65967 44.2373 8.65967H36.042C35.4893 8.65967 35.042 9.10742 35.042 9.65967V40.1724C35.042 40.7246 35.4893 41.1724 36.042 41.1724ZM37.042 10.6597H43.2373V39.1724H37.042V10.6597Z" fill="#650340"/>
<path id="Vector_3" d="M71.0127 61.502H66.123C65.5703 61.502 65.123 61.9497 65.123 62.502C65.123 63.0542 65.5703 63.502 66.123 63.502H71.0127C71.5654 63.502 72.0127 63.0542 72.0127 62.502C72.0127 61.9497 71.5654 61.502 71.0127 61.502Z" fill="#650340"/>
<path id="Vector_4" d="M66.123 59.6582H71.0127C71.5654 59.6582 72.0127 59.2104 72.0127 58.6582C72.0127 58.106 71.5654 57.6582 71.0127 57.6582H66.123C65.5703 57.6582 65.123 58.106 65.123 58.6582C65.123 59.2104 65.5703 59.6582 66.123 59.6582Z" fill="#650340"/>
<path id="Vector_5" d="M36.042 46.1958H44.2373C44.79 46.1958 45.2373 45.748 45.2373 45.1958C45.2373 44.6436 44.79 44.1958 44.2373 44.1958H36.042C35.4893 44.1958 35.042 44.6436 35.042 45.1958C35.042 45.748 35.4893 46.1958 36.042 46.1958Z" fill="#650340"/>
<path id="Vector_6" d="M14.127 61.502H9.2373C8.68457 61.502 8.2373 61.9497 8.2373 62.502C8.2373 63.0542 8.68457 63.502 9.2373 63.502H14.127C14.6797 63.502 15.127 63.0542 15.127 62.502C15.127 61.9497 14.6797 61.502 14.127 61.502Z" fill="#650340"/>
<path id="Vector_7" d="M9.2373 59.6582H14.127C14.6797 59.6582 15.127 59.2104 15.127 58.6582C15.127 58.106 14.6797 57.6582 14.127 57.6582H9.2373C8.68457 57.6582 8.2373 58.106 8.2373 58.6582C8.2373 59.2104 8.68457 59.6582 9.2373 59.6582Z" fill="#650340"/>
</g>
</svg>
