<svg width="70" height="70" viewBox="0 0 70 70" fill="none" xmlns="http://www.w3.org/2000/svg">
<g id="Group 39524">
<path id="Vector" d="M57.5467 7.13586C57.9746 10.1746 60.5843 12.5222 63.7391 12.5222C67.1916 12.5222 70 9.71344 70 6.26086C70 2.80872 67.1916 0 63.7391 0C60.5844 0 57.9746 2.3475 57.5467 5.38586H49.0635C48.7309 5.38586 48.4268 5.57471 48.2794 5.87292L42.9095 16.7378C40.4835 15.683 37.8097 15.0946 35 15.0946C32.1903 15.0946 29.5165 15.683 27.0905 16.7378L21.7201 5.87292C21.5728 5.57471 21.2687 5.38586 20.936 5.38586H12.4533C12.0254 2.3475 9.41565 0 6.26091 0C2.80844 0 0 2.80872 0 6.26086C0 9.71344 2.80844 12.5222 6.26091 12.5222C9.4157 12.5222 12.0254 10.1746 12.4533 7.13586H20.3928L25.5167 17.5024C19.5553 20.7464 15.4293 26.9493 15.1171 34.125H12.4533C12.0254 31.0866 9.41565 28.7391 6.26091 28.7391C2.80844 28.7391 0 31.5479 0 35C0 38.4526 2.80844 41.2613 6.26091 41.2613C9.4157 41.2613 12.0254 38.9137 12.4533 35.875H15.1171C15.4496 43.5178 20.1116 50.052 26.7061 53.0881L20.4573 62.8641H12.4533C12.0254 59.8254 9.4157 57.4778 6.26091 57.4778C2.80844 57.4778 0 60.2866 0 63.7391C0 67.1913 2.80844 70 6.26091 70C9.41565 70 12.0254 67.6525 12.4533 64.6141H20.936C21.2345 64.6141 21.5121 64.462 21.6727 64.2104L28.3526 53.7599C30.4328 54.4992 32.6694 54.9054 35 54.9054C37.3305 54.9054 39.567 54.4992 41.6471 53.76L48.3268 64.2104C48.4874 64.462 48.765 64.6141 49.0635 64.6141H57.5467C57.9746 67.6525 60.5844 70 63.7391 70C67.1916 70 70 67.1913 70 63.7391C70 60.2866 67.1916 57.4778 63.7391 57.4778C60.5843 57.4778 57.9746 59.8254 57.5467 62.8641H49.5423L43.2936 53.0883C49.8883 50.0523 54.5504 43.5179 54.8829 35.875H57.5467C57.9746 38.9137 60.5843 41.2613 63.7391 41.2613C67.1916 41.2613 70 38.4526 70 35C70 31.5479 67.1916 28.7391 63.7391 28.7391C60.5844 28.7391 57.9746 31.0866 57.5467 34.125H54.8829C54.5707 26.9492 50.4447 20.7464 44.4833 17.5023L49.6068 7.13586H57.5467ZM63.7391 1.75C66.2268 1.75 68.2507 3.77344 68.2507 6.26086C68.2507 8.74829 66.2268 10.7722 63.7391 10.7722C61.2514 10.7722 59.2275 8.74829 59.2275 6.26086C59.2275 3.77344 61.2514 1.75 63.7391 1.75ZM6.26091 10.7722C3.7732 10.7722 1.7493 8.74829 1.7493 6.26086C1.7493 3.77344 3.7732 1.75 6.26091 1.75C8.74861 1.75 10.7725 3.77344 10.7725 6.26086C10.7725 8.74829 8.74861 10.7722 6.26091 10.7722ZM6.26091 68.25C3.7732 68.25 1.7493 66.2266 1.7493 63.7391C1.7493 61.2517 3.7732 59.2278 6.26091 59.2278C8.74861 59.2278 10.7725 61.2517 10.7725 63.7391C10.7725 66.2266 8.74861 68.25 6.26091 68.25ZM63.7391 59.2278C66.2268 59.2278 68.2507 61.2517 68.2507 63.7391C68.2507 66.2266 66.2268 68.25 63.7391 68.25C61.2514 68.25 59.2275 66.2266 59.2275 63.7391C59.2275 61.2517 61.2514 59.2278 63.7391 59.2278ZM6.26091 39.5113C3.7732 39.5113 1.7493 37.4874 1.7493 35C1.7493 32.5126 3.7732 30.4891 6.26091 30.4891C8.74861 30.4891 10.7725 32.5126 10.7725 35C10.7725 37.4874 8.74861 39.5113 6.26091 39.5113ZM63.7391 30.4891C66.2268 30.4891 68.2507 32.5126 68.2507 35C68.2507 37.4874 66.2268 39.5113 63.7391 39.5113C61.2514 39.5113 59.2275 37.4874 59.2275 35C59.2275 32.5126 61.2514 30.4891 63.7391 30.4891ZM53.1558 35C53.1558 45.0108 45.011 53.1554 35 53.1554C24.989 53.1554 16.8442 45.0108 16.8442 35C16.8442 24.9892 24.989 16.8446 35 16.8446C45.011 16.8446 53.1558 24.9892 53.1558 35Z" fill="#650340"/>
<path id="Vector_2" d="M28.2642 24.5847C28.1989 26.2753 26.8767 27.6185 25.188 27.7095C24.7238 27.7343 24.3604 28.1184 24.3604 28.5833V36.0848C24.3604 39.8694 26.415 43.3621 29.7223 45.1997L34.5755 47.8965C34.7075 47.97 34.8536 48.0067 35 48.0067C35.1465 48.0067 35.2926 47.97 35.4246 47.8965L40.2783 45.1997C43.5851 43.3621 45.6397 39.8694 45.6397 36.0848V28.5833C45.6397 28.1184 45.2763 27.7343 44.8121 27.7095C43.1234 27.6185 41.8012 26.2753 41.7359 24.5847C41.7179 24.1151 41.3318 23.7434 40.8621 23.7434H29.138C28.6682 23.7434 28.2822 24.1151 28.2642 24.5847ZM40.0903 25.4934C40.4892 27.416 41.9729 28.9203 43.8904 29.3442V36.0848C43.8904 39.2341 42.1809 42.1406 39.4288 43.6702L35 46.1307L30.5717 43.6702C27.8192 42.1406 26.1096 39.2341 26.1096 36.0848V29.3442C28.0272 28.9203 29.5109 27.416 29.9098 25.4934H40.0903Z" fill="#650340"/>
</g>
</svg>
