<svg width="80" height="80" viewBox="0 0 80 80" fill="none" xmlns="http://www.w3.org/2000/svg">
<g id="Group 1000001886">
<path id="Vector" d="M79 22.5498H56.3657V1C56.3657 0.447754 55.918 0 55.3657 0H1C0.447754 0 0 0.447754 0 1V74.231C0 74.7832 0.447754 75.231 1 75.231H40.1313V79C40.1313 79.5522 40.5791 80 41.1313 80H79C79.5522 80 80 79.5522 80 79V23.5498C80 22.9976 79.5522 22.5498 79 22.5498ZM53.6427 2L48.9062 10.4658H7.43506L2.69861 2H53.6427ZM2 73.231V4.84717L5.97607 11.9541C6.15283 12.27 6.48633 12.4658 6.84863 12.4658H49.4927C49.855 12.4658 50.1885 12.27 50.3652 11.9541L54.3657 4.80353V22.5498H41.1313C40.5791 22.5498 40.1313 22.9976 40.1313 23.5498V24.8339C35.5449 22.1965 31.5171 21.9096 29.6138 21.9612V19.8706C29.6138 19.3184 29.166 18.8706 28.6138 18.8706C28.0615 18.8706 27.6138 19.3184 27.6138 19.8706V21.9611C25.5227 21.9034 20.8667 22.245 15.7202 25.6812C10.7119 29.0239 7.79102 27.8574 7.77539 27.8511C7.27441 27.6196 6.68018 27.8413 6.44971 28.3438C6.21973 28.8457 6.44043 29.4395 6.94238 29.6694C7.0127 29.7017 7.81348 30.0527 9.229 30.0527C10.1494 30.0527 11.3376 29.8925 12.7459 29.4114L8.20251 46.356H6.91309C6.36084 46.356 5.91309 46.8037 5.91309 47.356V50.6914C5.91309 52.4927 7.37842 53.958 9.17969 53.958H19.917C21.7178 53.958 23.1831 52.4927 23.1831 50.6914V47.356C23.1831 46.8037 22.7354 46.356 22.1831 46.356H20.2682L15.4031 28.2114C15.8647 27.9539 16.3372 27.6735 16.8306 27.3442C21.5608 24.1868 25.8575 23.9207 27.6138 23.9688V56.5601H23.5835C21.8999 56.5601 20.5303 58.0332 20.5303 59.8442V64.0376C20.5303 64.5898 20.978 65.0376 21.5303 65.0376H35.6968C36.249 65.0376 36.6968 64.5898 36.6968 64.0376V59.8442C36.6968 58.0332 35.3271 56.5601 33.6436 56.5601H29.6138V23.9643C31.3273 23.9116 35.4677 24.1585 40.1113 27.1572L40.1313 27.1703V32.9736C40.1302 32.9776 40.1271 32.9803 40.126 32.9844L36.5405 46.356H35.251C34.6987 46.356 34.251 46.8037 34.251 47.356V50.6914C34.251 52.4927 35.7163 53.958 37.5176 53.958H40.1313V73.231H2ZM40.1313 48.356V51.958H37.5176C36.8193 51.958 36.251 51.3896 36.251 50.6914V48.356H40.1313ZM40.1313 46.356H38.6108L40.1313 40.6856V46.356ZM33.6436 58.5601C34.2241 58.5601 34.6968 59.1362 34.6968 59.8442V63.0376H22.5303V59.8442C22.5303 59.1362 23.0029 58.5601 23.5835 58.5601H33.6436ZM21.1831 48.356V50.6914C21.1831 51.3896 20.6152 51.958 19.917 51.958H9.17969C8.48145 51.958 7.91309 51.3896 7.91309 50.6914V48.356H21.1831ZM10.2729 46.356L14.2354 31.5786L18.1978 46.356H10.2729ZM78 78H42.1313V24.5498H78V78Z" fill="#650340"/>
<path id="Vector_2" d="M62.4355 33.2202H72.3896C72.9419 33.2202 73.3896 32.7725 73.3896 32.2202C73.3896 31.668 72.9419 31.2202 72.3896 31.2202H62.4355C61.8833 31.2202 61.4355 31.668 61.4355 32.2202C61.4355 32.7725 61.8833 33.2202 62.4355 33.2202Z" fill="#650340"/>
<path id="Vector_3" d="M62.4355 41.0635H72.3896C72.9419 41.0635 73.3896 40.6157 73.3896 40.0635C73.3896 39.5112 72.9419 39.0635 72.3896 39.0635H62.4355C61.8833 39.0635 61.4355 39.5112 61.4355 40.0635C61.4355 40.6157 61.8833 41.0635 62.4355 41.0635Z" fill="#650340"/>
<path id="Vector_4" d="M47.7422 41.0635H55.585C56.1372 41.0635 56.585 40.6157 56.585 40.0635V32.2202C56.585 31.668 56.1372 31.2202 55.585 31.2202H47.7422C47.1899 31.2202 46.7422 31.668 46.7422 32.2202V40.0635C46.7422 40.6157 47.1899 41.0635 47.7422 41.0635ZM48.7422 33.2202H54.585V39.0635H48.7422V33.2202Z" fill="#650340"/>
<path id="Vector_5" d="M62.4355 48.0815H72.3896C72.9419 48.0815 73.3896 47.6338 73.3896 47.0815C73.3896 46.5293 72.9419 46.0815 72.3896 46.0815H62.4355C61.8833 46.0815 61.4355 46.5293 61.4355 47.0815C61.4355 47.6338 61.8833 48.0815 62.4355 48.0815Z" fill="#650340"/>
<path id="Vector_6" d="M62.4355 55.9243H72.3896C72.9419 55.9243 73.3896 55.4766 73.3896 54.9243C73.3896 54.3721 72.9419 53.9243 72.3896 53.9243H62.4355C61.8833 53.9243 61.4355 54.3721 61.4355 54.9243C61.4355 55.4766 61.8833 55.9243 62.4355 55.9243Z" fill="#650340"/>
<path id="Vector_7" d="M47.7422 55.9243H55.585C56.1372 55.9243 56.585 55.4766 56.585 54.9243V47.0815C56.585 46.5293 56.1372 46.0815 55.585 46.0815H47.7422C47.1899 46.0815 46.7422 46.5293 46.7422 47.0815V54.9243C46.7422 55.4766 47.1899 55.9243 47.7422 55.9243ZM48.7422 48.0815H54.585V53.9243H48.7422V48.0815Z" fill="#650340"/>
<path id="Vector_8" d="M62.4355 63.4868H72.3896C72.9419 63.4868 73.3896 63.0391 73.3896 62.4868C73.3896 61.9346 72.9419 61.4868 72.3896 61.4868H62.4355C61.8833 61.4868 61.4355 61.9346 61.4355 62.4868C61.4355 63.0391 61.8833 63.4868 62.4355 63.4868Z" fill="#650340"/>
<path id="Vector_9" d="M62.4355 71.3296H72.3896C72.9419 71.3296 73.3896 70.8818 73.3896 70.3296C73.3896 69.7773 72.9419 69.3296 72.3896 69.3296H62.4355C61.8833 69.3296 61.4355 69.7773 61.4355 70.3296C61.4355 70.8818 61.8833 71.3296 62.4355 71.3296Z" fill="#650340"/>
<path id="Vector_10" d="M47.7422 71.3296H55.585C56.1372 71.3296 56.585 70.8818 56.585 70.3296V62.4868C56.585 61.9346 56.1372 61.4868 55.585 61.4868H47.7422C47.1899 61.4868 46.7422 61.9346 46.7422 62.4868V70.3296C46.7422 70.8818 47.1899 71.3296 47.7422 71.3296ZM48.7422 63.4868H54.585V69.3296H48.7422V63.4868Z" fill="#650340"/>
</g>
</svg>
