<svg width="81" height="74" viewBox="0 0 81 74" fill="none" xmlns="http://www.w3.org/2000/svg">
<g id="Group 39543">
<path id="Vector" d="M80.123 56.8777C80.123 56.8537 80.123 56.8296 80.123 56.8055C80.123 56.6732 80.098 56.5528 80.0479 56.4446L73.0622 41.3317H75.6411C76.1544 41.3317 76.5801 40.9226 76.5801 40.4293V35.2312C76.5801 34.7379 76.1544 34.3288 75.6411 34.3288H64.812V10.1795C64.812 8.30244 63.2221 6.77431 61.2691 6.77431H45.4448V3.4052C45.4448 1.52813 43.8548 0 41.9018 0H22.9102C20.9572 0 19.3672 1.52813 19.3672 3.4052V6.77431H3.54294C2.24094 6.77431 1.10169 7.46016 0.488249 8.48293C0.488249 8.49496 0.475731 8.49496 0.475731 8.50699C0.187788 9.00033 0 9.56585 0 10.1795V46.0605C0 47.9376 1.58994 49.4657 3.54294 49.4657H38.1961L34.9787 56.4325C34.9286 56.5408 34.9036 56.6611 34.9036 56.7935C34.9036 56.8176 34.9036 56.8416 34.9036 56.8657C34.9161 59.3685 35.8175 61.4862 37.4951 62.9902C38.9974 64.3379 41.013 65.0719 43.1788 65.0719C45.3446 65.0719 47.3602 64.3259 48.8625 62.9902C50.5401 61.4862 51.429 59.3685 51.454 56.8657C51.454 56.8416 51.454 56.8176 51.454 56.7935C51.454 56.6611 51.429 56.5408 51.3789 56.4325L44.4057 41.3317H53.7951V66.1789C50.4399 67.2016 47.6231 69.548 46.1584 72.7366C46.0332 73.0133 46.0582 73.3382 46.2335 73.5909C46.4087 73.8436 46.7092 74 47.0222 74H68.0169C68.3299 74 68.6304 73.8436 68.8056 73.5909C68.9809 73.3382 69.0059 73.0133 68.8808 72.7366C67.416 69.5359 64.5992 67.1776 61.244 66.1668V41.3317H70.6334L63.6602 56.4446C63.6102 56.5528 63.5851 56.6732 63.5851 56.8055C63.5851 56.8296 63.5851 56.8537 63.5851 56.8777C63.5976 59.3805 64.499 61.4982 66.1766 63.0023C67.6789 64.3499 69.6945 65.0839 71.8603 65.0839C75.9416 65.0839 80.0854 62.2683 80.123 56.8777ZM74.7147 39.5268H40.3244V36.1337H74.7147V39.5268ZM55.698 34.3167C55.8357 33.4745 56.5869 32.8247 57.5133 32.8247C58.4397 32.8247 59.1909 33.4745 59.3286 34.3167H55.698ZM21.2451 3.4052C21.2451 2.5148 21.9963 1.80488 22.9102 1.80488H41.9018C42.8283 1.80488 43.5669 2.52683 43.5669 3.4052V6.77431H21.2451V3.4052ZM3.54294 8.57919H61.2565C61.7573 8.57919 62.183 8.79577 62.4959 9.13268C62.4834 9.15675 62.4709 9.18081 62.4584 9.20488L58.0516 24.7268C57.8513 25.4247 57.1878 25.906 56.4366 25.906H39.6233V24.6667C39.6233 22.934 38.1461 21.5141 36.3433 21.5141H28.4812C26.6785 21.5141 25.2012 22.934 25.2012 24.6667V25.906H8.38788C7.63672 25.906 6.97321 25.4247 6.7729 24.7268L2.32858 9.10862C2.62904 8.78374 3.06721 8.57919 3.54294 8.57919ZM37.7454 24.6787V28.9502C37.7454 29.6963 37.1195 30.2979 36.3433 30.2979H28.4812C27.705 30.2979 27.0791 29.6963 27.0791 28.9502V24.6787C27.0791 23.9327 27.705 23.3311 28.4812 23.3311H36.3433C37.1195 23.3311 37.7454 23.9327 37.7454 24.6787ZM43.1788 63.279C41.4887 63.279 39.9238 62.7135 38.772 61.6787C37.6703 60.692 37.0319 59.3203 36.8566 57.708H49.526C49.1129 61.5343 46.0457 63.279 43.1788 63.279ZM37.2948 55.9031L43.1913 43.1366L49.0879 55.9031H37.2948ZM39.0349 47.6728H3.54294C2.61652 47.6728 1.87788 46.9509 1.87788 46.0725V14.3668L4.97013 25.2081C5.38327 26.6881 6.78542 27.7229 8.38788 27.7229H25.1887V28.9623C25.1887 30.695 26.6659 32.1148 28.4687 32.1148H36.3308C38.1335 32.1148 39.6108 30.695 39.6108 28.9623V27.7229H56.4241C58.0141 27.7229 59.4162 26.7002 59.8419 25.2202L62.9216 14.4029V34.3288H61.194C61.0437 32.4878 59.4538 31.0319 57.5008 31.0319C55.5478 31.0319 53.9578 32.4878 53.8076 34.3288H39.3855C38.8722 34.3288 38.4465 34.7379 38.4465 35.2312V40.4293C38.4465 40.9226 38.8722 41.3317 39.3855 41.3317H41.9644L39.0349 47.6728ZM66.4645 72.1951H48.5746C50.4775 69.2472 53.8577 67.4182 57.5258 67.4182C61.194 67.4182 64.5616 69.2472 66.4645 72.1951ZM59.3536 65.7457C58.7527 65.6615 58.1393 65.6133 57.5258 65.6133C56.8999 65.6133 56.2739 65.6615 55.673 65.7457V41.3317H59.3536V65.7457ZM71.8478 43.1366L77.7444 55.9031H65.9512L71.8478 43.1366ZM71.8478 63.279C68.9809 63.279 65.9137 61.5223 65.5006 57.708H78.195C77.7694 61.5343 74.7147 63.279 71.8478 63.279Z" fill="#650340"/>
</g>
</svg>
