<svg width="93" height="89" viewBox="0 0 93 89" fill="none" xmlns="http://www.w3.org/2000/svg">
<path id="Vector" d="M40.7831 37.19H66.4831C66.6537 37.1852 66.8236 37.2147 66.9826 37.2767C67.1417 37.3387 67.2867 37.432 67.4091 37.551C67.5315 37.67 67.6287 37.8123 67.6952 37.9696C67.7616 38.1268 67.7958 38.2958 67.7958 38.4665C67.7958 38.6372 67.7616 38.8062 67.6952 38.9634C67.6287 39.1207 67.5315 39.263 67.4091 39.382C67.2867 39.501 67.1417 39.5943 66.9826 39.6563C66.8236 39.7183 66.6537 39.7478 66.4831 39.743H40.7831C40.4507 39.7337 40.1351 39.5951 39.9033 39.3568C39.6715 39.1184 39.5418 38.799 39.5418 38.4665C39.5418 38.134 39.6715 37.8146 39.9033 37.5762C40.1351 37.3379 40.4507 37.1993 40.7831 37.19ZM52.9251 44.321H25.9071C25.7365 44.3162 25.5666 44.3457 25.4075 44.4077C25.2485 44.4697 25.1035 44.563 24.9811 44.682C24.8587 44.801 24.7614 44.9433 24.695 45.1006C24.6286 45.2578 24.5944 45.4268 24.5944 45.5975C24.5944 45.7682 24.6286 45.9372 24.695 46.0944C24.7614 46.2517 24.8587 46.394 24.9811 46.513C25.1035 46.632 25.2485 46.7253 25.4075 46.7873C25.5666 46.8493 25.7365 46.8788 25.9071 46.874H52.9251C53.0957 46.8788 53.2656 46.8493 53.4246 46.7873C53.5837 46.7253 53.7287 46.632 53.8511 46.513C53.9735 46.394 54.0707 46.2517 54.1372 46.0944C54.2036 45.9372 54.2378 45.7682 54.2378 45.5975C54.2378 45.4268 54.2036 45.2578 54.1372 45.1006C54.0707 44.9433 53.9735 44.801 53.8511 44.682C53.7287 44.563 53.5837 44.4697 53.4246 44.4077C53.2656 44.3457 53.0957 44.3162 52.9251 44.321ZM66.4821 44.321H58.8351C58.6645 44.3162 58.4946 44.3457 58.3355 44.4077C58.1765 44.4697 58.0315 44.563 57.9091 44.682C57.7867 44.801 57.6894 44.9433 57.623 45.1006C57.5566 45.2578 57.5224 45.4268 57.5224 45.5975C57.5224 45.7682 57.5566 45.9372 57.623 46.0944C57.6894 46.2517 57.7867 46.394 57.9091 46.513C58.0315 46.632 58.1765 46.7253 58.3355 46.7873C58.4946 46.8493 58.6645 46.8788 58.8351 46.874H66.4821C66.6527 46.8788 66.8226 46.8493 66.9816 46.7873C67.1407 46.7253 67.2857 46.632 67.4081 46.513C67.5305 46.394 67.6277 46.2517 67.6942 46.0944C67.7606 45.9372 67.7948 45.7682 67.7948 45.5975C67.7948 45.4268 67.7606 45.2578 67.6942 45.1006C67.6277 44.9433 67.5305 44.801 67.4081 44.682C67.2857 44.563 67.1407 44.4697 66.9816 44.4077C66.8226 44.3457 66.6527 44.3162 66.4821 44.321ZM48.8391 61.14H66.4821C66.6527 61.1448 66.8226 61.1153 66.9816 61.0533C67.1407 60.9913 67.2857 60.898 67.4081 60.779C67.5305 60.66 67.6277 60.5177 67.6942 60.3604C67.7606 60.2032 67.7948 60.0342 67.7948 59.8635C67.7948 59.6928 67.7606 59.5238 67.6942 59.3666C67.6277 59.2093 67.5305 59.067 67.4081 58.948C67.2857 58.829 67.1407 58.7357 66.9816 58.6737C66.8226 58.6117 66.6527 58.5822 66.4821 58.587H48.8391C48.5067 58.5963 48.1911 58.7349 47.9593 58.9732C47.7275 59.2116 47.5978 59.531 47.5978 59.8635C47.5978 60.196 47.7275 60.5154 47.9593 60.7538C48.1911 60.9921 48.5067 61.1307 48.8391 61.14ZM25.9071 39.74H34.8741C35.2065 39.7307 35.5221 39.5921 35.7539 39.3538C35.9857 39.1154 36.1154 38.796 36.1154 38.4635C36.1154 38.131 35.9857 37.8116 35.7539 37.5732C35.5221 37.3349 35.2065 37.1963 34.8741 37.187H25.9071C25.7365 37.1822 25.5666 37.2117 25.4075 37.2737C25.2485 37.3357 25.1035 37.429 24.9811 37.548C24.8587 37.667 24.7614 37.8093 24.695 37.9666C24.6286 38.1238 24.5944 38.2928 24.5944 38.4635C24.5944 38.6342 24.6286 38.8032 24.695 38.9604C24.7614 39.1177 24.8587 39.26 24.9811 39.379C25.1035 39.498 25.2485 39.5913 25.4075 39.6533C25.5666 39.7153 25.7365 39.7448 25.9071 39.74ZM62.5771 75.63H48.1771C48.0065 75.6252 47.8366 75.6547 47.6775 75.7167C47.5185 75.7787 47.3735 75.872 47.2511 75.991C47.1287 76.11 47.0314 76.2523 46.965 76.4096C46.8986 76.5668 46.8644 76.7358 46.8644 76.9065C46.8644 77.0772 46.8986 77.2462 46.965 77.4034C47.0314 77.5607 47.1287 77.703 47.2511 77.822C47.3735 77.941 47.5185 78.0343 47.6775 78.0963C47.8366 78.1583 48.0065 78.1878 48.1771 78.183H62.5771C62.7477 78.1878 62.9176 78.1583 63.0766 78.0963C63.2357 78.0343 63.3807 77.941 63.5031 77.822C63.6255 77.703 63.7227 77.5607 63.7892 77.4034C63.8556 77.2462 63.8898 77.0772 63.8898 76.9065C63.8898 76.7358 63.8556 76.5668 63.7892 76.4096C63.7227 76.2523 63.6255 76.11 63.5031 75.991C63.3807 75.872 63.2357 75.7787 63.0766 75.7167C62.9176 75.6547 62.7477 75.6252 62.5771 75.63ZM25.9071 29.779H55.0191C55.3515 29.7697 55.6671 29.6311 55.8989 29.3928C56.1307 29.1544 56.2604 28.835 56.2604 28.5025C56.2604 28.17 56.1307 27.8506 55.8989 27.6122C55.6671 27.3739 55.3515 27.2353 55.0191 27.226H25.9071C25.7365 27.2212 25.5666 27.2507 25.4075 27.3127C25.2485 27.3747 25.1035 27.468 24.9811 27.587C24.8587 27.706 24.7614 27.8483 24.695 28.0056C24.6286 28.1628 24.5944 28.3318 24.5944 28.5025C24.5944 28.6732 24.6286 28.8422 24.695 28.9994C24.7614 29.1567 24.8587 29.299 24.9811 29.418C25.1035 29.537 25.2485 29.6303 25.4075 29.6923C25.5666 29.7543 25.7365 29.7838 25.9071 29.779ZM25.9071 24.679H42.8141C43.1465 24.6697 43.4621 24.5311 43.6939 24.2928C43.9257 24.0544 44.0554 23.735 44.0554 23.4025C44.0554 23.07 43.9257 22.7506 43.6939 22.5122C43.4621 22.2739 43.1465 22.1353 42.8141 22.126H25.9071C25.7365 22.1212 25.5666 22.1507 25.4075 22.2127C25.2485 22.2747 25.1035 22.368 24.9811 22.487C24.8587 22.606 24.7614 22.7483 24.695 22.9056C24.6286 23.0628 24.5944 23.2318 24.5944 23.4025C24.5944 23.5732 24.6286 23.7422 24.695 23.8994C24.7614 24.0567 24.8587 24.199 24.9811 24.318C25.1035 24.437 25.2485 24.5303 25.4075 24.5923C25.5666 24.6543 25.7365 24.6838 25.9071 24.679ZM93.0001 63.511V65.097C92.999 65.8938 92.682 66.6577 92.1184 67.221C91.5549 67.7844 90.7909 68.1012 89.9941 68.102H87.4241C87.4484 68.2518 87.4611 68.4033 87.4621 68.555V70.14C87.461 70.3103 87.4456 70.4803 87.4161 70.648C88.1021 70.7801 88.7209 71.1469 89.1661 71.6853C89.6113 72.2237 89.8552 72.9003 89.8561 73.599V75.184C89.8563 75.8038 89.6637 76.4084 89.3051 76.914C89.6633 77.4183 89.8558 78.0215 89.8561 78.64V80.23C89.8562 80.8495 89.6637 81.4538 89.3051 81.959C89.6637 82.4642 89.8562 83.0685 89.8561 83.688V85.274C89.8553 86.07 89.5392 86.8332 88.9769 87.3966C88.4146 87.96 87.6521 88.2776 86.8561 88.28H16.7281C16.3894 88.28 16.0646 88.1455 15.8251 87.906C15.5856 87.6665 15.4511 87.3417 15.4511 87.003V81.715H9.7311C9.39285 81.715 9.06845 81.5807 8.82918 81.3416C8.58991 81.1025 8.45536 80.7782 8.4551 80.44V73.213C5.35257 71.1775 3.0062 68.1775 1.7781 64.676C-0.255905 59.345 -0.180905 53.482 0.241095 49.502C0.272203 49.2098 0.403222 48.9373 0.612019 48.7305C0.820815 48.5237 1.09459 48.3953 1.3871 48.367C3.8688 48.1419 6.27617 47.4011 8.4551 46.192V1.277C8.45496 1.10935 8.48787 0.943316 8.55194 0.788389C8.616 0.633462 8.70997 0.492679 8.82847 0.374085C8.94697 0.255492 9.08768 0.161413 9.24256 0.0972254C9.39744 0.0330379 9.56344 -5.14842e-08 9.7311 0H68.6641C69.0028 0 69.3276 0.134541 69.5671 0.374025C69.8066 0.613509 69.9411 0.938319 69.9411 1.277V14.689L76.5631 21.312C76.6815 21.4301 76.7755 21.5704 76.8396 21.7248C76.9038 21.8792 76.9369 22.0448 76.9371 22.212V40.445C79.5403 39.4747 82.4076 39.4837 85.0047 40.4704C87.6018 41.4571 89.7517 43.3541 91.054 45.8082C92.3562 48.2623 92.7221 51.1061 92.0834 53.8099C91.4446 56.5137 89.8449 58.8931 87.5821 60.505H89.9941C90.7911 60.5058 91.5552 60.8228 92.1188 61.3863C92.6823 61.9499 92.9993 62.714 93.0001 63.511ZM80.9341 42.277C79.1728 42.277 77.4512 42.7993 75.9867 43.7778C74.5223 44.7563 73.3809 46.147 72.7069 47.7742C72.033 49.4014 71.8566 51.1919 72.2002 52.9193C72.5438 54.6467 73.3919 56.2334 74.6373 57.4788C75.8827 58.7242 77.4694 59.5723 79.1968 59.9159C80.9242 60.2595 82.7147 60.0831 84.3419 59.4091C85.9691 58.7351 87.3598 57.5938 88.3383 56.1294C89.3168 54.6649 89.8391 52.9432 89.8391 51.182C89.8364 48.8211 88.8974 46.5576 87.228 44.8881C85.5585 43.2187 83.295 42.2796 80.9341 42.277ZM62.5641 20.94H72.5791L62.5641 10.923V20.94ZM11.0081 44.426C11.6952 43.8511 12.3365 43.2236 12.9261 42.549C13.0459 42.4117 13.1936 42.3017 13.3595 42.2263C13.5253 42.1509 13.7054 42.1119 13.8876 42.1119C14.0698 42.1119 14.2499 42.1509 14.4157 42.2263C14.5815 42.3017 14.7293 42.4117 14.8491 42.549C15.0491 42.774 15.2491 42.991 15.4491 43.203V7.84C15.4491 7.67235 15.4821 7.50634 15.5463 7.35147C15.6105 7.19659 15.7046 7.05588 15.8232 6.93738C15.9418 6.81888 16.0826 6.72491 16.2375 6.66084C16.3924 6.59678 16.5584 6.56387 16.7261 6.564H61.2861C61.4533 6.56417 61.6189 6.59729 61.7733 6.66146C61.9277 6.72563 62.068 6.8196 62.1861 6.938L67.3861 12.138V2.553H11.0081V44.426ZM13.8881 72.826C25.1331 69.753 25.6001 57.107 25.0901 50.78C20.8553 50.2051 16.9234 48.2655 13.8901 45.255C10.8568 48.2655 6.92486 50.2051 2.69009 50.78C2.1751 57.107 2.6431 69.753 13.8881 72.826ZM15.4511 79.162V75.021C15.0441 75.154 14.6281 75.276 14.2011 75.384C13.9957 75.436 13.7805 75.436 13.5751 75.384C12.7003 75.1639 11.8424 74.8811 11.0081 74.538V79.162H15.4511ZM18.0001 85.727H65.2191C65.1953 85.5771 65.1826 85.4257 65.1811 85.274V83.688C65.1813 83.0684 65.3742 82.4641 65.7331 81.959C65.3742 81.4539 65.1813 80.8496 65.1811 80.23V78.64C65.1811 78.0203 65.374 77.416 65.7331 76.911C65.3742 76.4055 65.1813 75.8009 65.1811 75.181V73.6C65.1819 73.4296 65.1977 73.2596 65.2281 73.092C64.5418 72.9597 63.923 72.5928 63.4776 72.0542C63.0323 71.5156 62.7882 70.8389 62.7871 70.14V68.555C62.7871 68.455 62.7921 68.363 62.8011 68.268H36.3801C36.0477 68.2587 35.7321 68.1201 35.5003 67.8818C35.2685 67.6434 35.1388 67.324 35.1388 66.9915C35.1388 66.659 35.2685 66.3396 35.5003 66.1012C35.7321 65.8629 36.0477 65.7243 36.3801 65.715H64.8171C65.1307 65.6062 65.4602 65.5501 65.7921 65.549H68.3631C68.3388 65.3995 68.3261 65.2484 68.3251 65.097V63.511C68.3259 62.714 68.6428 61.9499 69.2064 61.3863C69.77 60.8228 70.5341 60.5058 71.3311 60.505H74.2861C72.7907 59.4412 71.5731 58.0333 70.7361 56.4001C69.8991 54.7668 69.4673 52.9562 69.4771 51.121C69.4869 49.2859 69.938 47.48 70.7924 45.8558C71.6468 44.2316 72.8794 42.8367 74.3861 41.789V23.489H61.2861C60.9474 23.489 60.6226 23.3545 60.3831 23.115C60.1436 22.8755 60.0091 22.5507 60.0091 22.212V9.112H18.0001V45.369C20.4924 47.0699 23.3795 48.1029 26.3851 48.369C26.6776 48.3973 26.9514 48.5257 27.1602 48.7325C27.369 48.9393 27.5 49.2118 27.5311 49.504C27.5951 50.113 27.6511 50.766 27.6931 51.455H66.4821C66.8205 51.455 67.1451 51.5894 67.3844 51.8287C67.6237 52.068 67.7581 52.3926 67.7581 52.731C67.7581 53.0694 67.6237 53.394 67.3844 53.6333C67.1451 53.8726 66.8205 54.007 66.4821 54.007H27.7751C27.7776 55.5379 27.6821 57.0673 27.4891 58.586H42.9301C43.2625 58.5953 43.5781 58.7339 43.8099 58.9722C44.0417 59.2106 44.1714 59.53 44.1714 59.8625C44.1714 60.195 44.0417 60.5144 43.8099 60.7528C43.5781 60.9911 43.2625 61.1297 42.9301 61.139H27.0461C26.7853 62.3422 26.4357 63.5245 26.0001 64.676C25.8581 65.0493 25.7081 65.413 25.5501 65.767C25.6667 65.7328 25.7876 65.7153 25.9091 65.715H30.4731C30.8055 65.7243 31.1211 65.8629 31.3529 66.1012C31.5847 66.3396 31.7144 66.659 31.7144 66.9915C31.7144 67.324 31.5847 67.6434 31.3529 67.8818C31.1211 68.1201 30.8055 68.2587 30.4731 68.268H25.9071C25.6459 68.2687 25.3907 68.1892 25.1761 68.0402C24.9615 67.8912 24.7978 67.68 24.7071 67.435C23.177 70.2354 20.8401 72.5109 18.0001 73.966V85.727ZM87.3001 73.6C87.2985 73.4803 87.2503 73.366 87.1657 73.2814C87.0811 73.1968 86.9668 73.1486 86.8471 73.147H68.1871C68.0673 73.1483 67.9529 73.1964 67.8682 73.2811C67.7835 73.3658 67.7354 73.4803 67.7341 73.6V75.185C67.7356 75.3045 67.7837 75.4187 67.8681 75.5033C67.9525 75.5879 68.0666 75.6362 68.1861 75.638H86.8521C86.9716 75.6362 87.0856 75.5879 87.1701 75.5033C87.2545 75.4187 87.3025 75.3045 87.3041 75.185L87.3001 73.6ZM86.8481 78.191H68.1861C68.0667 78.1931 67.9528 78.2415 67.8684 78.326C67.7841 78.4106 67.7359 78.5246 67.7341 78.644V80.23C67.7356 80.3497 67.7839 80.464 67.8685 80.5486C67.9531 80.6332 68.0674 80.6814 68.1871 80.683H86.8511C86.9707 80.6812 87.0848 80.6329 87.1694 80.5483C87.254 80.4638 87.3023 80.3496 87.3041 80.23V78.64C87.3013 78.5213 87.2526 78.4083 87.1684 78.3246C87.0842 78.2409 86.9708 78.193 86.8521 78.191H86.8481ZM87.3001 83.691C87.2983 83.5714 87.25 83.4572 87.1654 83.3727C87.0808 83.2881 86.9667 83.2398 86.8471 83.238H68.1871C68.0674 83.2396 67.9531 83.2878 67.8685 83.3724C67.7839 83.457 67.7356 83.5713 67.7341 83.691V85.277C67.7354 85.3967 67.7835 85.5112 67.8682 85.5959C67.9529 85.6805 68.0673 85.7287 68.1871 85.73H86.8511C86.9707 85.7284 87.0851 85.6802 87.1697 85.5956C87.2543 85.511 87.3025 85.3967 87.3041 85.277L87.3001 83.691ZM84.4571 68.102H65.7921C65.6726 68.1038 65.5585 68.1521 65.4741 68.2367C65.3897 68.3213 65.3416 68.4355 65.3401 68.555V70.14C65.3414 70.2596 65.3894 70.3739 65.4739 70.4585C65.5583 70.5432 65.6725 70.5914 65.7921 70.593H84.4561C84.5758 70.5917 84.6903 70.5435 84.775 70.4589C84.8596 70.3742 84.9078 70.2597 84.9091 70.14V68.555C84.9073 68.4356 84.8591 68.3216 84.7748 68.237C84.6904 68.1525 84.5765 68.1041 84.4571 68.102ZM90.4471 63.511C90.4458 63.3913 90.3976 63.2768 90.313 63.1921C90.2283 63.1074 90.1138 63.0593 89.9941 63.058H71.3311C71.2113 63.0593 71.0969 63.1074 71.0122 63.1921C70.9275 63.2768 70.8794 63.3913 70.8781 63.511V65.097C70.8796 65.2164 70.9278 65.3305 71.0122 65.4149C71.0966 65.4993 71.2107 65.5474 71.3301 65.549H89.9941C90.1138 65.5474 90.2281 65.4992 90.3127 65.4146C90.3973 65.33 90.4455 65.2157 90.4471 65.096V63.511ZM21.3371 54.279C21.0981 54.0408 20.7745 53.9071 20.4371 53.9071C20.0997 53.9071 19.7761 54.0408 19.5371 54.279L12.5821 61.234L9.7621 58.415C9.64731 58.2827 9.5065 58.1754 9.34845 58.0998C9.19039 58.0243 9.01847 57.9821 8.8434 57.9759C8.66832 57.9697 8.49384 57.9996 8.33083 58.0637C8.16782 58.1279 8.01976 58.2249 7.89589 58.3488C7.77201 58.4727 7.67497 58.6207 7.61081 58.7837C7.54665 58.9468 7.51675 59.1212 7.52296 59.2963C7.52917 59.4714 7.57137 59.6433 7.64692 59.8014C7.72247 59.9594 7.82975 60.1002 7.96209 60.215L11.6741 63.94C11.9132 64.1779 12.2368 64.3115 12.5741 64.3115C12.9114 64.3115 13.235 64.1779 13.4741 63.94L21.3321 56.082C21.5718 55.8436 21.707 55.5197 21.708 55.1815C21.7089 54.8434 21.5755 54.5188 21.3371 54.279ZM79.6571 57.94V58.34C79.6523 58.5106 79.6818 58.6805 79.7438 58.8396C79.8058 58.9986 79.8991 59.1436 80.0181 59.266C80.1371 59.3884 80.2794 59.4856 80.4367 59.5521C80.5939 59.6185 80.7629 59.6527 80.9336 59.6527C81.1043 59.6527 81.2733 59.6185 81.4305 59.5521C81.5878 59.4856 81.7301 59.3884 81.8491 59.266C81.9681 59.1436 82.0614 58.9986 82.1234 58.8396C82.1854 58.6805 82.2149 58.5106 82.2101 58.34V57.94C82.7462 57.6953 83.2008 57.3019 83.5199 56.8064C83.839 56.311 84.0091 55.7343 84.0101 55.145V52.985C84.009 52.1695 83.6846 51.3877 83.108 50.8111C82.5314 50.2345 81.7496 49.9101 80.9341 49.909C80.7957 49.9072 80.6635 49.8514 80.5656 49.7535C80.4677 49.6556 80.4119 49.5234 80.4101 49.385V47.223C80.407 47.1523 80.4183 47.0818 80.4432 47.0156C80.4681 46.9493 80.5061 46.8889 80.5551 46.8378C80.604 46.7867 80.6627 46.746 80.7278 46.7182C80.7928 46.6904 80.8629 46.6761 80.9336 46.6761C81.0043 46.6761 81.0743 46.6904 81.1394 46.7182C81.2045 46.746 81.2632 46.7867 81.3121 46.8378C81.361 46.8889 81.3991 46.9493 81.424 47.0156C81.4489 47.0818 81.4602 47.1523 81.4571 47.223V48.423C81.4523 48.5936 81.4818 48.7635 81.5438 48.9226C81.6058 49.0816 81.6991 49.2266 81.8181 49.349C81.9371 49.4714 82.0794 49.5686 82.2367 49.6351C82.3939 49.7015 82.5629 49.7357 82.7336 49.7357C82.9043 49.7357 83.0733 49.7015 83.2305 49.6351C83.3878 49.5686 83.5301 49.4714 83.6491 49.349C83.7681 49.2266 83.8614 49.0816 83.9234 48.9226C83.9854 48.7635 84.0149 48.5936 84.0101 48.423V47.223C84.0099 46.6329 83.8402 46.0552 83.5211 45.5588C83.202 45.0624 82.7469 44.6681 82.2101 44.423V44.02C82.2008 43.6876 82.0622 43.372 81.8238 43.1402C81.5855 42.9084 81.2661 42.7787 80.9336 42.7787C80.6011 42.7787 80.2817 42.9084 80.0433 43.1402C79.805 43.372 79.6664 43.6876 79.6571 44.02V44.427C79.1203 44.6721 78.6652 45.0664 78.3461 45.5628C78.027 46.0592 77.8572 46.6369 77.8571 47.227V49.386C77.8582 50.2017 78.1827 50.9838 78.7595 51.5606C79.3363 52.1374 80.1183 52.4619 80.9341 52.463C81.0723 52.4646 81.2044 52.5202 81.3022 52.6179C81.3999 52.7156 81.4555 52.8478 81.4571 52.986V55.14C81.4512 55.2749 81.3935 55.4023 81.2959 55.4956C81.1984 55.589 81.0686 55.6411 80.9336 55.6411C80.7986 55.6411 80.6688 55.589 80.5713 55.4956C80.4737 55.4023 80.416 55.2749 80.4101 55.14V53.94C80.4008 53.6076 80.2622 53.292 80.0238 53.0602C79.7855 52.8284 79.4661 52.6987 79.1336 52.6987C78.8011 52.6987 78.4817 52.8284 78.2433 53.0602C78.005 53.292 77.8664 53.6076 77.8571 53.94V55.14C77.8571 55.7302 78.0268 56.3079 78.3459 56.8043C78.6651 57.3007 79.1202 57.695 79.6571 57.94Z" fill="#650340"/>
</svg>
