<svg width="80" height="80" viewBox="0 0 80 80" fill="none" xmlns="http://www.w3.org/2000/svg">
<g id="Group 1000001893">
<path id="Vector" d="M37.6514 30.3086H37.8086C39.3975 30.3086 40.6904 31.5947 40.6904 33.1758C40.6904 34.7568 39.3975 36.0435 37.8086 36.0435C36.2197 36.0435 34.9277 34.7568 34.9277 33.1758C34.9277 32.6235 34.4805 32.1758 33.9277 32.1758C33.375 32.1758 32.9277 32.6235 32.9277 33.1758C32.9277 35.4603 34.5197 37.3687 36.6514 37.8902V38.7256C36.6514 39.2778 37.0986 39.7256 37.6514 39.7256C38.2041 39.7256 38.6514 39.2778 38.6514 38.7256V37.9585C40.9409 37.5577 42.6904 35.5721 42.6904 33.1758C42.6904 30.4922 40.5 28.3086 37.8086 28.3086H37.6514C36.0625 28.3086 34.7695 27.022 34.7695 25.4409C34.7695 23.8599 36.0625 22.5737 37.6514 22.5737C39.2402 22.5737 40.5322 23.8599 40.5322 25.4409C40.5322 25.9932 40.9795 26.4409 41.5322 26.4409C42.085 26.4409 42.5322 25.9932 42.5322 25.4409C42.5322 23.0992 40.8645 21.1398 38.6514 20.6782V19.8911C38.6514 19.3389 38.2041 18.8911 37.6514 18.8911C37.0986 18.8911 36.6514 19.3389 36.6514 19.8911V20.6782C34.4381 21.1398 32.7695 23.0992 32.7695 25.4409C32.7695 28.125 34.96 30.3086 37.6514 30.3086Z" fill="#650340"/>
<path id="Vector_2" d="M37.8086 54.1675H37.6514C36.0625 54.1675 34.7695 52.8809 34.7695 51.2998C34.7695 49.7188 36.0625 48.4326 37.6514 48.4326C39.2402 48.4326 40.5322 49.7188 40.5322 51.2998C40.5322 51.8521 40.9795 52.2998 41.5322 52.2998C42.085 52.2998 42.5322 51.8521 42.5322 51.2998C42.5322 48.9581 40.8645 46.9987 38.6514 46.5371V45.7505C38.6514 45.1982 38.2041 44.7505 37.6514 44.7505C37.0986 44.7505 36.6514 45.1982 36.6514 45.7505V46.5371C34.4381 46.9987 32.7695 48.9581 32.7695 51.2998C32.7695 53.9839 34.96 56.1675 37.6514 56.1675H37.8086C39.3975 56.1675 40.6904 57.4541 40.6904 59.0352C40.6904 60.6162 39.3975 61.9023 37.8086 61.9023C36.2197 61.9023 34.9277 60.6162 34.9277 59.0352C34.9277 58.4829 34.4805 58.0352 33.9277 58.0352C33.375 58.0352 32.9277 58.4829 32.9277 59.0352C32.9277 61.3193 34.5197 63.2275 36.6514 63.7491V64.5845C36.6514 65.1367 37.0986 65.5845 37.6514 65.5845C38.2041 65.5845 38.6514 65.1367 38.6514 64.5845V63.8174C40.9409 63.4166 42.6904 61.431 42.6904 59.0352C42.6904 56.3511 40.5 54.1675 37.8086 54.1675Z" fill="#650340"/>
<path id="Vector_3" d="M76.5254 0H21.6416C19.7256 0 18.167 1.55859 18.167 3.47461V76.5259C18.167 78.4414 19.7256 80 21.6416 80H76.5254C78.4414 80 80 78.4414 80 76.5259V3.47461C80 1.55859 78.4414 0 76.5254 0ZM37.6553 13.3335H60.5117C63.0332 13.3335 65.084 11.3091 65.084 8.82031V7.51416H71.9824V71.8198H26.1836V7.51416H33.083V8.82031C33.083 11.3091 35.1338 13.3335 37.6553 13.3335ZM63.084 8.82031C63.084 10.2061 61.9297 11.3335 60.5117 11.3335H37.6553C36.2373 11.3335 35.083 10.2061 35.083 8.82031V7.51416H63.084V8.82031ZM35.083 5.51416V2H63.084V5.51416H35.083ZM78 76.5259C78 77.3389 77.3389 78 76.5254 78H21.6416C20.8281 78 20.167 77.3389 20.167 76.5259V3.47461C20.167 2.66162 20.8281 2 21.6416 2H33.083V5.51416H25.1836C24.6309 5.51416 24.1836 5.96191 24.1836 6.51416V72.8198C24.1836 73.3721 24.6309 73.8198 25.1836 73.8198H72.9824C73.5352 73.8198 73.9824 73.3721 73.9824 72.8198V6.51416C73.9824 5.96191 73.5352 5.51416 72.9824 5.51416H65.084V2H76.5254C77.3389 2 78 2.66162 78 3.47461V76.5259Z" fill="#650340"/>
<path id="Vector_4" d="M0 27.8169C0 28.3691 0.447266 28.8169 1 28.8169H1.18945V79C1.18945 79.5522 1.63672 80 2.18945 80H8.12109C8.67383 80 9.12109 79.5522 9.12109 79V28.8169H9.31055C9.86328 28.8169 10.3105 28.3691 10.3105 27.8169V7.12451H12.3125V33.6582C12.3125 34.2104 12.7598 34.6582 13.3125 34.6582C13.8652 34.6582 14.3125 34.2104 14.3125 33.6582V6.12451C14.3125 5.57227 13.8652 5.12451 13.3125 5.12451H10.3105V1C10.3105 0.447754 9.86328 0 9.31055 0H1C0.447266 0 0 0.447754 0 1V27.8169ZM3.18945 78V73.687H7.12109V78H3.18945ZM7.12109 71.687H3.18945V28.8169H7.12109V71.687ZM2 2H8.31055V26.8169H2V2Z" fill="#650340"/>
<path id="Vector_5" d="M49.8438 21.5669H64.1104C64.6631 21.5669 65.1104 21.1191 65.1104 20.5669C65.1104 20.0146 64.6631 19.5669 64.1104 19.5669H49.8438C49.291 19.5669 48.8438 20.0146 48.8438 20.5669C48.8438 21.1191 49.291 21.5669 49.8438 21.5669Z" fill="#650340"/>
<path id="Vector_6" d="M49.8438 30.2168H64.1104C64.6631 30.2168 65.1104 29.769 65.1104 29.2168C65.1104 28.6646 64.6631 28.2168 64.1104 28.2168H49.8438C49.291 28.2168 48.8438 28.6646 48.8438 29.2168C48.8438 29.769 49.291 30.2168 49.8438 30.2168Z" fill="#650340"/>
<path id="Vector_7" d="M49.8438 38.8667H64.1104C64.6631 38.8667 65.1104 38.4189 65.1104 37.8667C65.1104 37.3145 64.6631 36.8667 64.1104 36.8667H49.8438C49.291 36.8667 48.8438 37.3145 48.8438 37.8667C48.8438 38.4189 49.291 38.8667 49.8438 38.8667Z" fill="#650340"/>
<path id="Vector_8" d="M49.8438 47.5166H64.1104C64.6631 47.5166 65.1104 47.0688 65.1104 46.5166C65.1104 45.9644 64.6631 45.5166 64.1104 45.5166H49.8438C49.291 45.5166 48.8438 45.9644 48.8438 46.5166C48.8438 47.0688 49.291 47.5166 49.8438 47.5166Z" fill="#650340"/>
<path id="Vector_9" d="M49.8438 56.1665H64.1104C64.6631 56.1665 65.1104 55.7188 65.1104 55.1665C65.1104 54.6143 64.6631 54.1665 64.1104 54.1665H49.8438C49.291 54.1665 48.8438 54.6143 48.8438 55.1665C48.8438 55.7188 49.291 56.1665 49.8438 56.1665Z" fill="#650340"/>
<path id="Vector_10" d="M49.8438 64.8164H64.1104C64.6631 64.8164 65.1104 64.3687 65.1104 63.8164C65.1104 63.2642 64.6631 62.8164 64.1104 62.8164H49.8438C49.291 62.8164 48.8438 63.2642 48.8438 63.8164C48.8438 64.3687 49.291 64.8164 49.8438 64.8164Z" fill="#650340"/>
</g>
</svg>
