<svg width="70" height="70" viewBox="0 0 70 70" fill="none" xmlns="http://www.w3.org/2000/svg">
<g id="Group 39520">
<path id="Vector" d="M32.9449 26.52H33.0825C34.4728 26.52 35.6041 27.6453 35.6041 29.0287C35.6041 30.4122 34.4728 31.538 33.0825 31.538C31.6923 31.538 30.5618 30.4122 30.5618 29.0287C30.5618 28.5455 30.1704 28.1537 29.6868 28.1537C29.2031 28.1537 28.8118 28.5455 28.8118 29.0287C28.8118 31.0277 30.2047 32.6975 32.0699 33.1539V33.8848C32.0699 34.368 32.4613 34.7598 32.9449 34.7598C33.4286 34.7598 33.8199 34.368 33.8199 33.8848V33.2136C35.8233 32.863 37.3541 31.1255 37.3541 29.0287C37.3541 26.6806 35.4375 24.77 33.0825 24.77H32.9449C31.5547 24.77 30.4233 23.6442 30.4233 22.2607C30.4233 20.8773 31.5547 19.752 32.9449 19.752C34.3352 19.752 35.4657 20.8773 35.4657 22.2607C35.4657 22.744 35.8571 23.1357 36.3407 23.1357C36.8243 23.1357 37.2157 22.744 37.2157 22.2607C37.2157 20.2117 35.7564 18.4973 33.8199 18.0934V17.4047C33.8199 16.9214 33.4286 16.5297 32.9449 16.5297C32.4613 16.5297 32.0699 16.9214 32.0699 17.4047V18.0934C30.1333 18.4973 28.6733 20.2117 28.6733 22.2607C28.6733 24.6093 30.59 26.52 32.9449 26.52Z" fill="#650340"/>
<path id="Vector_2" d="M33.0825 47.3965H32.9449C31.5547 47.3965 30.4233 46.2707 30.4233 44.8873C30.4233 43.5038 31.5547 42.3785 32.9449 42.3785C34.3352 42.3785 35.4657 43.5038 35.4657 44.8873C35.4657 45.3705 35.8571 45.7623 36.3407 45.7623C36.8243 45.7623 37.2157 45.3705 37.2157 44.8873C37.2157 42.8382 35.7564 41.1238 33.8199 40.7199V40.0316C33.8199 39.5484 33.4286 39.1566 32.9449 39.1566C32.4613 39.1566 32.0699 39.5484 32.0699 40.0316V40.7199C30.1333 41.1238 28.6733 42.8382 28.6733 44.8873C28.6733 47.2358 30.59 49.1465 32.9449 49.1465H33.0825C34.4728 49.1465 35.6041 50.2723 35.6041 51.6557C35.6041 53.0391 34.4728 54.1645 33.0825 54.1645C31.6923 54.1645 30.5618 53.0391 30.5618 51.6557C30.5618 51.1725 30.1704 50.7807 29.6868 50.7807C29.2031 50.7807 28.8118 51.1725 28.8118 51.6557C28.8118 53.6543 30.2047 55.324 32.0699 55.7804V56.5114C32.0699 56.9946 32.4613 57.3864 32.9449 57.3864C33.4286 57.3864 33.8199 56.9946 33.8199 56.5114V55.8401C35.8233 55.4895 37.3541 53.7521 37.3541 51.6557C37.3541 49.3071 35.4375 47.3965 33.0825 47.3965Z" fill="#650340"/>
<path id="Vector_3" d="M66.9597 0H18.9364C17.2599 0 15.8961 1.36377 15.8961 3.04028V66.9601C15.8961 68.6362 17.2599 70 18.9364 70H66.9597C68.6362 70 70 68.6362 70 66.9601V3.04028C70 1.36377 68.6362 0 66.9597 0ZM32.9484 11.6668H52.9478C55.1541 11.6668 56.9485 9.89545 56.9485 7.71777V6.57489H62.9846V62.8423H22.9106V6.57489H28.9476V7.71777C28.9476 9.89545 30.7421 11.6668 32.9484 11.6668ZM55.1985 7.71777C55.1985 8.9303 54.1885 9.91681 52.9478 9.91681H32.9484C31.7076 9.91681 30.6976 8.9303 30.6976 7.71777V6.57489H55.1985V7.71777ZM30.6976 4.82489V1.75H55.1985V4.82489H30.6976ZM68.25 66.9601C68.25 67.6715 67.6715 68.25 66.9597 68.25H18.9364C18.2246 68.25 17.6461 67.6715 17.6461 66.9601V3.04028C17.6461 2.32892 18.2246 1.75 18.9364 1.75H28.9476V4.82489H22.0356C21.552 4.82489 21.1606 5.21667 21.1606 5.69989V63.7173C21.1606 64.2006 21.552 64.5923 22.0356 64.5923H63.8596C64.3433 64.5923 64.7346 64.2006 64.7346 63.7173V5.69989C64.7346 5.21667 64.3433 4.82489 63.8596 4.82489H56.9485V1.75H66.9597C67.6715 1.75 68.25 2.32892 68.25 3.04028V66.9601Z" fill="#650340"/>
<path id="Vector_4" d="M0 24.3398C0 24.823 0.391357 25.2148 0.875 25.2148H1.04077V69.125C1.04077 69.6082 1.43213 70 1.91577 70H7.10596C7.5896 70 7.98096 69.6082 7.98096 69.125V25.2148H8.14673C8.63037 25.2148 9.02173 24.823 9.02173 24.3398V6.23395H10.7734V29.4509C10.7734 29.9341 11.1648 30.3259 11.6484 30.3259C12.1321 30.3259 12.5234 29.9341 12.5234 29.4509V5.35895C12.5234 4.87573 12.1321 4.48395 11.6484 4.48395H9.02173V0.875C9.02173 0.391785 8.63037 0 8.14673 0H0.875C0.391357 0 0 0.391785 0 0.875V24.3398ZM2.79077 68.25V64.4761H6.23096V68.25H2.79077ZM6.23096 62.7261H2.79077V25.2148H6.23096V62.7261ZM1.75 1.75H7.27173V23.4648H1.75V1.75Z" fill="#650340"/>
<path id="Vector_5" d="M43.6123 18.871H56.0956C56.5792 18.871 56.9706 18.4792 56.9706 17.996C56.9706 17.5128 56.5792 17.121 56.0956 17.121H43.6123C43.1287 17.121 42.7373 17.5128 42.7373 17.996C42.7373 18.4792 43.1287 18.871 43.6123 18.871Z" fill="#650340"/>
<path id="Vector_6" d="M43.6123 26.4398H56.0956C56.5792 26.4398 56.9706 26.048 56.9706 25.5648C56.9706 25.0816 56.5792 24.6898 56.0956 24.6898H43.6123C43.1287 24.6898 42.7373 25.0816 42.7373 25.5648C42.7373 26.048 43.1287 26.4398 43.6123 26.4398Z" fill="#650340"/>
<path id="Vector_7" d="M43.6123 34.0083H56.0956C56.5792 34.0083 56.9706 33.6165 56.9706 33.1333C56.9706 32.6501 56.5792 32.2583 56.0956 32.2583H43.6123C43.1287 32.2583 42.7373 32.6501 42.7373 33.1333C42.7373 33.6165 43.1287 34.0083 43.6123 34.0083Z" fill="#650340"/>
<path id="Vector_8" d="M43.6123 41.5771H56.0956C56.5792 41.5771 56.9706 41.1854 56.9706 40.7021C56.9706 40.2189 56.5792 39.8271 56.0956 39.8271H43.6123C43.1287 39.8271 42.7373 40.2189 42.7373 40.7021C42.7373 41.1854 43.1287 41.5771 43.6123 41.5771Z" fill="#650340"/>
<path id="Vector_9" d="M43.6123 49.1456H56.0956C56.5792 49.1456 56.9706 48.7538 56.9706 48.2706C56.9706 47.7874 56.5792 47.3956 56.0956 47.3956H43.6123C43.1287 47.3956 42.7373 47.7874 42.7373 48.2706C42.7373 48.7538 43.1287 49.1456 43.6123 49.1456Z" fill="#650340"/>
<path id="Vector_10" d="M43.6123 56.7145H56.0956C56.5792 56.7145 56.9706 56.3227 56.9706 55.8395C56.9706 55.3563 56.5792 54.9645 56.0956 54.9645H43.6123C43.1287 54.9645 42.7373 55.3563 42.7373 55.8395C42.7373 56.3227 43.1287 56.7145 43.6123 56.7145Z" fill="#650340"/>
</g>
</svg>
