<svg width="96" height="90" viewBox="0 0 96 90" fill="none" xmlns="http://www.w3.org/2000/svg">
<g id="Group 1000001882">
<path id="Vector" d="M81.259 89.7795H14.659C13.6999 89.7784 12.7803 89.3969 12.1022 88.7186C11.4241 88.0402 11.0428 87.1206 11.042 86.1615V33.4895C11.0421 33.3244 11.0831 33.162 11.1613 33.0167C11.2395 32.8713 11.3524 32.7476 11.49 32.6565L47.417 8.84648C47.5803 8.73895 47.7715 8.68164 47.967 8.68164C48.1625 8.68164 48.3537 8.73895 48.517 8.84648L84.427 32.5785C84.5651 32.6696 84.6784 32.7937 84.7567 32.9394C84.8351 33.0851 84.8761 33.248 84.876 33.4135V86.1615C84.8749 87.1205 84.4936 88.04 83.8155 88.7183C83.1374 89.3965 82.218 89.7782 81.259 89.7795ZM13.045 34.0295V86.1615C13.0453 86.5903 13.2157 87.0016 13.5188 87.3049C13.822 87.6083 14.2331 87.779 14.662 87.7795H81.262C81.6908 87.7787 82.1018 87.6079 82.4049 87.3046C82.708 87.0014 82.8785 86.5903 82.879 86.1615V33.9515L47.971 10.8795L13.045 34.0295Z" fill="#650340"/>
<path id="Vector_2" d="M47.895 36.1728C46.2595 36.1728 44.6608 35.6878 43.301 34.7792C41.9411 33.8706 40.8813 32.5791 40.2554 31.0682C39.6296 29.5572 39.4658 27.8946 39.7849 26.2906C40.1039 24.6865 40.8915 23.2131 42.0479 22.0567C43.2044 20.9003 44.6777 20.1127 46.2818 19.7937C47.8858 19.4746 49.5484 19.6383 51.0594 20.2642C52.5704 20.8901 53.8618 21.9499 54.7704 23.3098C55.679 24.6696 56.164 26.2683 56.164 27.9038C56.1616 30.0961 55.2896 32.198 53.7394 33.7482C52.1892 35.2984 50.0873 36.1704 47.895 36.1728ZM47.895 21.6348C46.6551 21.6348 45.443 22.0024 44.4121 22.6913C43.3812 23.3801 42.5777 24.3592 42.1032 25.5047C41.6287 26.6502 41.5045 27.9107 41.7464 29.1268C41.9883 30.3429 42.5854 31.4599 43.4621 32.3366C44.3389 33.2134 45.4559 33.8104 46.672 34.0523C47.888 34.2942 49.1485 34.1701 50.294 33.6956C51.4395 33.2211 52.4186 32.4176 53.1075 31.3866C53.7963 30.3557 54.164 29.1437 54.164 27.9038C54.1619 26.2418 53.5007 24.6485 52.3255 23.4733C51.1503 22.298 49.557 21.6369 47.895 21.6348Z" fill="#650340"/>
<path id="Vector_3" d="M4.94849 38.4188C4.13048 38.4241 3.32411 38.2249 2.60266 37.8393C1.88122 37.4537 1.26757 36.8939 0.817495 36.2108C0.0970839 35.1145 -0.161255 33.7781 0.0986819 32.4922C0.358619 31.2064 1.1158 30.0753 2.20549 29.3449L20.8495 16.9748L45.2335 0.817849C46.0442 0.284326 46.9935 0 47.964 0C48.9345 0 49.8838 0.284326 50.6945 0.817849L93.7845 29.2878C94.861 30.0203 95.6056 31.1473 95.8571 32.4249C96.1086 33.7024 95.8467 35.0276 95.1282 36.1134C94.4096 37.1992 93.2923 37.9583 92.0181 38.2262C90.7439 38.4941 89.4155 38.2493 88.3205 37.5448L47.9765 10.8798L7.67649 37.6008C6.86569 38.1322 5.9179 38.4164 4.94849 38.4188ZM47.9665 1.99885C47.3865 1.9985 46.8191 2.16816 46.3345 2.48685L3.31149 31.0108C2.66245 31.4485 2.21215 32.1244 2.05826 32.892C1.90438 33.6595 2.05933 34.4568 2.4895 35.1108C2.93459 35.7464 3.60772 36.1858 4.36868 36.3374C5.12965 36.4891 5.91978 36.3413 6.5745 35.9249L47.4235 8.84685C47.5868 8.73932 47.778 8.68201 47.9735 8.68201C48.169 8.68201 48.3602 8.73932 48.5235 8.84685L89.4235 35.8738C89.746 36.0866 90.1073 36.2338 90.4867 36.3069C90.8661 36.38 91.2562 36.3777 91.6347 36.3001C92.0131 36.2224 92.3727 36.071 92.6926 35.8544C93.0126 35.6379 93.2868 35.3604 93.4995 35.0378V35.0318C93.7133 34.71 93.8617 34.3492 93.9361 33.97C94.0104 33.5908 94.0094 33.2007 93.933 32.8219C93.8565 32.4431 93.7062 32.0831 93.4906 31.7624C93.2751 31.4417 92.9984 31.1666 92.6765 30.9528L49.5955 2.48985C49.1123 2.17024 48.5459 1.99951 47.9665 1.99885Z" fill="#650340"/>
<path id="Vector_4" d="M30.0665 72.5638C28.6181 72.5622 27.2295 71.9861 26.2053 70.9619C25.1812 69.9378 24.6051 68.5491 24.6035 67.1008V45.7808C24.6035 44.3332 25.1786 42.9449 26.2021 41.9214C27.2257 40.8978 28.614 40.3228 30.0615 40.3228C31.5091 40.3228 32.8973 40.8978 33.9209 41.9214C34.9445 42.9449 35.5195 44.3332 35.5195 45.7808V67.1008C35.5193 68.5478 34.945 69.9357 33.9227 70.9599C32.9004 71.984 31.5136 72.5608 30.0665 72.5638ZM30.0665 42.3168C29.1483 42.3181 28.2681 42.6835 27.6189 43.3329C26.9697 43.9822 26.6046 44.8625 26.6035 45.7808V67.1008C26.6035 68.0179 26.9678 68.8974 27.6163 69.5459C28.2648 70.1944 29.1444 70.5588 30.0615 70.5588C30.9786 70.5588 31.8582 70.1944 32.5067 69.5459C33.1552 68.8974 33.5195 68.0179 33.5195 67.1008V45.7808C33.5214 45.3263 33.4334 44.8759 33.2606 44.4555C33.0879 44.0351 32.8338 43.653 32.5129 43.3311C32.1921 43.0092 31.8108 42.7539 31.3909 42.5798C30.9711 42.4058 30.521 42.3164 30.0665 42.3168Z" fill="#650340"/>
<path id="Vector_5" d="M65.9327 72.5638C64.4844 72.5622 63.0959 71.9861 62.0719 70.9619C61.0479 69.9377 60.472 68.5491 60.4707 67.1008V45.7808C60.4707 44.3332 61.0457 42.9449 62.0693 41.9214C63.0929 40.8978 64.4812 40.3228 65.9287 40.3228C67.3763 40.3228 68.7645 40.8978 69.7881 41.9214C70.8117 42.9449 71.3867 44.3332 71.3867 45.7808V67.1008C71.3864 68.548 70.812 69.936 69.7895 70.9602C68.767 71.9844 67.3799 72.5611 65.9327 72.5638ZM65.9327 42.3168C65.0146 42.3181 64.1345 42.6835 63.4855 43.3329C62.8364 43.9823 62.4715 44.8626 62.4707 45.7808V67.1008C62.4707 68.0179 62.835 68.8974 63.4835 69.5459C64.132 70.1944 65.0116 70.5588 65.9287 70.5588C66.8458 70.5588 67.7254 70.1944 68.3739 69.5459C69.0224 68.8974 69.3867 68.0179 69.3867 67.1008V45.7808C69.3878 44.8617 69.0246 43.9796 68.3767 43.3278C68.0562 43.0063 67.6752 42.7515 67.2558 42.578C66.8363 42.4045 66.3866 42.3157 65.9327 42.3168Z" fill="#650340"/>
<path id="Vector_6" d="M61.4685 67.8657C61.3759 67.8655 61.2837 67.8527 61.1945 67.8277C58.0184 66.9222 54.7538 66.3616 51.4575 66.1557L51.1285 66.1317C49.0384 66.0055 46.9423 66.0155 44.8535 66.1617L44.5535 66.1847C41.2499 66.448 37.9758 67.0001 34.7685 67.8347C34.6208 67.8727 34.4663 67.8764 34.3169 67.8454C34.1675 67.8145 34.0271 67.7498 33.9066 67.6563C33.786 67.5628 33.6885 67.4429 33.6214 67.3059C33.5543 67.1688 33.5195 67.0183 33.5195 66.8657L33.5275 46.0117C33.5275 45.86 33.562 45.7104 33.6284 45.574C33.6948 45.4377 33.7913 45.3182 33.9107 45.2246C34.0301 45.1311 34.1691 45.0659 34.3174 45.034C34.4657 45.0022 34.6193 45.0045 34.7665 45.0407C43.4632 47.1634 52.5429 47.1634 61.2395 45.0407C61.3865 45.0058 61.5395 45.0047 61.6869 45.0373C61.8344 45.07 61.9726 45.1357 62.091 45.2294C62.2095 45.3232 62.3052 45.4425 62.3709 45.5785C62.4366 45.7145 62.4707 45.8636 62.4705 46.0147V66.8657C62.4705 67.1309 62.3652 67.3853 62.1776 67.5728C61.9901 67.7603 61.7357 67.8657 61.4705 67.8657H61.4685ZM35.5255 47.2737L35.5185 65.5897C38.4378 64.8937 41.4067 64.4256 44.3985 64.1897L44.7085 64.1667C46.8905 64.0144 49.0801 64.0037 51.2635 64.1347L51.5905 64.1587C54.5872 64.3465 57.5595 64.8152 60.4685 65.5587V47.2587C52.2547 49.0817 43.7416 49.0868 35.5255 47.2737Z" fill="#650340"/>
<path id="Vector_7" d="M51.5176 80.6678H44.4736C44.2084 80.6678 43.9541 80.5624 43.7665 80.3749C43.579 80.1874 43.4736 79.933 43.4736 79.6678V65.1898C43.4729 64.9374 43.5676 64.6941 43.7388 64.5086C43.91 64.3231 44.145 64.2092 44.3966 64.1898L44.7076 64.1668C46.8896 64.0145 49.0792 64.0038 51.2626 64.1348L51.5896 64.1588C51.8422 64.177 52.0784 64.2904 52.2506 64.476C52.4229 64.6616 52.5183 64.9056 52.5176 65.1588V79.6688C52.5174 79.9338 52.4119 80.1879 52.2244 80.3753C52.0369 80.5626 51.7827 80.6678 51.5176 80.6678ZM45.4736 78.6678H50.5176V66.0978C48.837 66.0182 47.1534 66.0269 45.4736 66.1238V78.6678Z" fill="#650340"/>
<path id="Vector_8" d="M54.0955 89.7799H41.8955C41.6303 89.7799 41.3759 89.6745 41.1884 89.487C41.0009 89.2994 40.8955 89.0451 40.8955 88.7799V81.3899C40.8963 80.6695 41.1828 79.9789 41.6922 79.4695C42.2015 78.9602 42.8922 78.6736 43.6125 78.6729H52.3815C53.1013 78.6744 53.7912 78.9613 54.2999 79.4706C54.8086 79.9799 55.0947 80.67 55.0955 81.3899V88.7799C55.0955 89.0451 54.9901 89.2994 54.8026 89.487C54.6151 89.6745 54.3607 89.7799 54.0955 89.7799ZM42.8955 87.7799H53.0955V81.3899C53.0955 81.1999 53.0201 81.0176 52.8859 80.8832C52.7516 80.7488 52.5695 80.6731 52.3795 80.6729H43.6125C43.4224 80.6731 43.2402 80.7487 43.1058 80.8831C42.9714 81.0176 42.8958 81.1998 42.8955 81.3899V87.7799Z" fill="#650340"/>
</g>
</svg>
