<svg width="80" height="80" viewBox="0 0 80 80" fill="none" xmlns="http://www.w3.org/2000/svg">
<g id="Group">
<g id="Group_2">
<path id="Vector" d="M78.5185 71.1111H65.9022C61.9526 63.56 59.8504 49.9615 61.2015 40.2015C64.2519 17.9896 62.28 7.55407 62.1941 7.12L62.1926 7.11704C61.7259 3.19556 58.8 0 54.8148 0H7.40741C3.32296 0 0 3.32296 0 7.40741C0 8.22518 0.663704 8.88889 1.48148 8.88889H12.0548C12.4637 12.16 13.2696 22.2356 10.8519 39.7985C9.28148 51.2 12.0533 69.0889 18.5378 76.5274C20.5481 78.8311 22.7837 80 25.1852 80H72.5926C76.677 80 80 76.677 80 72.5926C80 71.7748 79.3363 71.1111 78.5185 71.1111ZM3.2163 5.92593C3.82815 4.20148 5.47556 2.96296 7.40741 2.96296C9.33926 2.96296 10.9867 4.20148 11.5985 5.92593H3.2163ZM13.7881 40.2015C15.5348 27.5141 15.5348 18.6726 15.3926 13.3348C15.2474 7.84 14.1807 4.13185 13.2948 2.96296H54.8148C57.2652 2.96296 59.0637 5.89037 59.2874 7.54963C59.5111 9.20889 61.2489 18.0726 58.2652 39.7956C56.8978 49.68 58.7896 62.8207 62.603 71.1111H31.1111C30.2933 71.1111 29.6296 71.7748 29.6296 72.5926C29.6296 75.043 27.6356 77.037 25.1852 77.037C23.677 77.037 22.1926 76.2104 20.7719 74.5807C14.9807 67.9363 12.3081 50.9511 13.7881 40.2015ZM72.5926 77.037H31.0756C31.7304 76.1719 32.2193 75.1748 32.443 74.0741H76.7822C76.1718 75.7985 74.5244 77.037 72.5926 77.037Z" fill="#650340"/>
<path id="Vector_2" d="M54.8143 51.8518C54.8143 51.0341 54.1506 50.3704 53.3329 50.3704H20.7403C19.9225 50.3704 19.2588 51.0341 19.2588 51.8518C19.2588 52.6696 19.9225 53.3333 20.7403 53.3333H53.3329C54.1506 53.3333 54.8143 52.6696 54.8143 51.8518Z" fill="#650340"/>
<path id="Vector_3" d="M20.7403 45.9259H53.3329C54.1506 45.9259 54.8143 45.2621 54.8143 44.4444C54.8143 43.6266 54.1506 42.9629 53.3329 42.9629H20.7403C19.9225 42.9629 19.2588 43.6266 19.2588 44.4444C19.2588 45.2621 19.9225 45.9259 20.7403 45.9259Z" fill="#650340"/>
<path id="Vector_4" d="M20.7403 38.5186H53.3329C54.1506 38.5186 54.8143 37.8549 54.8143 37.0371C54.8143 36.2194 54.1506 35.5557 53.3329 35.5557H20.7403C19.9225 35.5557 19.2588 36.2194 19.2588 37.0371C19.2588 37.8549 19.9225 38.5186 20.7403 38.5186Z" fill="#650340"/>
<path id="Vector_5" d="M20.7403 31.1112H53.3329C54.1506 31.1112 54.8143 30.4475 54.8143 29.6297C54.8143 28.8119 54.1506 28.1482 53.3329 28.1482H20.7403C19.9225 28.1482 19.2588 28.8119 19.2588 29.6297C19.2588 30.4475 19.9225 31.1112 20.7403 31.1112Z" fill="#650340"/>
<path id="Vector_6" d="M20.7403 23.7037H53.3329C54.1506 23.7037 54.8143 23.04 54.8143 22.2222C54.8143 21.4044 54.1506 20.7407 53.3329 20.7407H20.7403C19.9225 20.7407 19.2588 21.4044 19.2588 22.2222C19.2588 23.04 19.9225 23.7037 20.7403 23.7037Z" fill="#650340"/>
</g>
</g>
</svg>
