<svg width="80" height="81" viewBox="0 0 80 81" fill="none" xmlns="http://www.w3.org/2000/svg">
<g id="Group 1000001895">
<path id="Vector" d="M0.7 65.575L49.9 80.975C50 80.975 50.1 80.975 50.2 80.975C50.3 80.975 50.4 80.975 50.5 80.875H50.6H50.7C50.7 80.875 50.8 80.875 50.8 80.775C50.8 80.775 50.9 80.775 50.9 80.675C50.9 80.675 50.9 80.675 50.9 80.575C50.9 80.575 51 80.475 51 80.375C51 80.275 51.1 80.275 51.1 80.175C51.1 80.175 51.1 80.175 51.1 80.075L57.5 59.975L79.1 50.975C79.6 50.775 79.8 50.175 79.6 49.675L59.1 0.575C59 0.375 58.8 0.175 58.6 0.075C58.4 -0.025 58.1 -0.025 57.8 0.075L24.9 13.775C24.7 13.875 24.5 14.075 24.4 14.275C24.3 14.475 24.3 14.775 24.4 15.075L35.4 41.275L10.8 33.575C10.7 33.575 10.6 33.575 10.4 33.575H10.3C10.2 33.575 10.1 33.575 10.1 33.675C10.1 33.675 10 33.675 10 33.775C9.9 33.775 9.9 33.875 9.8 33.875L9.7 33.975C9.7 33.975 9.7 33.975 9.7 34.075C9.7 34.175 9.6 34.175 9.6 34.275C9.6 34.275 9.6 34.275 9.6 34.375L0 64.375C0 64.375 0 64.375 0 64.475C0 64.575 0 64.575 0 64.675C0 64.775 0 64.775 0 64.875C0 64.875 0 64.875 0 64.975V65.075C0 65.175 0.1 65.175 0.1 65.275C0.1 65.375 0.2 65.375 0.2 65.375L0.3 65.475C0.5 65.475 0.5 65.575 0.7 65.575ZM10.8 36.575L28.4 56.775L2.5 63.275L10.8 36.575ZM49.7 78.075L32.1 57.875L58.1 51.375L49.7 78.075ZM29.9 58.475L47.1 78.075L4.7 64.775L29.9 58.475ZM26.6 15.275L57.6 2.275L77.4 49.575L58.3 57.575L60.6 50.275V50.175C60.6 50.075 60.6 50.075 60.6 49.975C60.6 49.975 60.6 49.975 60.6 49.875V49.775C60.6 49.675 60.6 49.675 60.5 49.575C60.5 49.575 60.5 49.475 60.4 49.475C60.4 49.375 60.3 49.375 60.3 49.275L60.2 49.175C60.1 49.075 60 49.075 59.9 48.975L57.4 48.175L69.5 43.175C70 42.975 70.2 42.375 70 41.875C69.8 41.375 69.2 41.075 68.7 41.375L54.6 47.275C54.5 47.275 54.5 47.375 54.5 47.375L45.5 44.475L66.4 35.675C66.9 35.475 67.1 34.875 66.9 34.375C66.7 33.875 66.1 33.575 65.6 33.875L42.5 43.575L37.8 42.075L26.6 15.275ZM42.2 45.575C42.3 45.575 42.3 45.575 42.4 45.675L55.9 49.875L30.6 56.175L13.5 36.575L42.2 45.575Z" fill="#650340"/>
<path id="Vector_2" d="M47.6003 24.4749L49.6003 29.5749C48.5003 29.4749 47.5003 28.8749 47.1003 27.7749C46.9003 27.2749 46.3003 26.9749 45.8003 27.1749C45.3003 27.3749 45.0003 27.9749 45.2003 28.4749C45.7003 29.6749 46.6003 30.5749 47.8003 31.0749C48.4003 31.3749 49.1003 31.4749 49.7003 31.4749C49.9003 31.4749 50.1003 31.4749 50.4003 31.3749L50.7003 32.1749C50.9003 32.5749 51.2003 32.7749 51.6003 32.7749C51.7003 32.7749 51.8003 32.7749 52.0003 32.6749C52.5003 32.4749 52.8003 31.8749 52.6003 31.3749L52.3003 30.6749C54.2003 29.4749 55.1003 26.9749 54.2003 24.7749C53.3003 22.5749 51.0003 21.3749 48.8003 21.8749L46.8003 16.7749C47.9003 16.7749 49.0003 17.4749 49.5003 18.5749C49.7003 19.0749 50.3003 19.3749 50.8003 19.1749C51.3003 18.9749 51.6003 18.3749 51.4003 17.8749C50.5003 15.7749 48.3003 14.5749 46.1003 14.8749L45.8003 14.1749C45.6003 13.6749 45.0003 13.3749 44.5003 13.5749C44.0003 13.7749 43.7003 14.3749 43.9003 14.8749L44.2003 15.5749C43.4003 16.0749 42.8003 16.7749 42.4003 17.6749C41.9003 18.8749 41.9003 20.1749 42.3003 21.3749C43.1003 23.6749 45.4003 24.8749 47.6003 24.4749ZM52.3003 25.6749C52.8003 26.8749 52.4003 28.1749 51.5003 28.8749L49.5003 23.8749C50.7003 23.8749 51.9003 24.5749 52.3003 25.6749ZM44.2003 18.5749C44.4003 18.1749 44.6003 17.8749 44.9003 17.5749L46.8003 22.4749C45.7003 22.4749 44.6003 21.7749 44.1003 20.6749C43.9003 20.0749 43.9003 19.2749 44.2003 18.5749Z" fill="#650340"/>
</g>
</svg>
