<svg width="46" height="78" viewBox="0 0 46 78" fill="none" xmlns="http://www.w3.org/2000/svg">
<g id="Group 39541">
<path id="Vector" d="M1.1 40.2H4.3V76.8C4.3 77.4 4.7 77.8 5.3 77.8H40.1C40.7 77.8 41.1 77.4 41.1 76.8V40.2H44.3C44.9 40.2 45.3 39.8 45.3 39.2V34.3C45.3 33.7 44.9 33.3 44.3 33.3H38V33.1C38 26.5 33.2 20.9 27.5 20.7V17.8C29.7 16.3 31.3 13.8 31.6 10.9C31.6 10.5 31.7 10.1 31.7 9.7C31.7 4.4 27.6 0 22.6 0C17.6 0 13.5 4.3 13.5 9.7C13.5 13.1 15.2 16.2 17.7 17.9V20.8C12.1 21 7.3 26.5 7.3 33.1V33.3H1C0.4 33.3 0 33.7 0 34.3V39.2C0.1 39.8 0.499998 40.2 1.1 40.2ZM39.1 75.8H6.3V40.2H39.1V75.8ZM29.7 9.5C28.1 8.8 26.9 7.2 26.4 6.6C27 6 27.5 5.4 28 4.8C29.1 6 29.7 7.7 29.7 9.5ZM22.7 2C24.1 2 25.5 2.5 26.6 3.3C23.9 7.5 17.9 9 15.6 9.4C15.8 5.3 18.9 2 22.7 2ZM15.8 11.5C17.5 11.2 21.6 10.3 24.9 7.9C25.6 8.9 27.2 10.9 29.5 11.6C28.7 14.9 26 17.4 22.7 17.4C19.3 17.4 16.5 14.9 15.8 11.5ZM22.7 19.4C23.7 19.4 24.6 19.2 25.5 18.9V21.2C23.7 22.3 21.6 22.3 19.8 21.2V18.9C20.7 19.2 21.7 19.4 22.7 19.4ZM9.3 33.1C9.3 27.6 13.4 22.7 18.1 22.7H18.6L18.7 22.8C19.9 23.6 21.3 23.9 22.7 23.9C24.1 23.9 25.5 23.5 26.7 22.7H26.8H27.3C32 22.7 36.1 27.6 36.1 33.1V33.3H9.3V33.1ZM2.1 35.4H43.3V38.2H2.1V35.4Z" fill="#650340"/>
<path id="Vector_2" d="M10.4001 72.2H34.9001C35.5001 72.2 35.9001 71.8 35.9001 71.2V44C35.9001 43.4 35.5001 43 34.9001 43H10.4001C9.80015 43 9.40015 43.4 9.40015 44V71.2C9.40015 71.7 9.90015 72.2 10.4001 72.2ZM11.4001 45H33.9001V70.2H11.4001V45Z" fill="#650340"/>
</g>
</svg>
