<svg width="70" height="70" viewBox="0 0 70 70" fill="none" xmlns="http://www.w3.org/2000/svg">
<g id="Group 39511">
<path id="Vector" d="M0.875 29.4099H1.24697L2.36267 69.1498C2.37592 69.6232 2.76343 70 3.23724 70H12.2227C12.6965 70 13.084 69.6232 13.0972 69.1498L14.2129 29.4099H14.5849C15.0681 29.4099 15.4599 29.0186 15.4599 28.5349V10.0143C17.6385 10.3921 19.3043 12.2841 19.3043 14.5691V28.5349C19.3043 29.0186 19.696 29.4099 20.1793 29.4099C20.6625 29.4099 21.0543 29.0186 21.0543 28.5349V14.5691C21.0543 11.3169 18.6082 8.63005 15.4599 8.23859V7.72974C15.4599 3.46753 11.9924 0 7.73016 0C3.46753 0 0 3.46753 0 7.72974V28.5349C0 29.0186 0.391785 29.4099 0.875 29.4099ZM13.7099 27.6599H1.75V9.93433H13.7099V27.6599ZM11.372 68.25H4.08789L2.99751 29.4099H12.4624L11.372 68.25ZM7.73016 1.75C11.0272 1.75 13.7099 4.43225 13.7099 7.72974V8.18433H1.75V7.72974C1.75 4.43225 4.43268 1.75 7.73016 1.75Z" fill="#650340"/>
<path id="Vector_2" d="M69.1251 0H25.4905C25.0073 0 24.6155 0.391357 24.6155 0.875V69.125C24.6155 69.6086 25.0073 70 25.4905 70H69.1251C69.6083 70 70.0001 69.6086 70.0001 69.125V0.875C70.0001 0.391357 69.6083 0 69.1251 0ZM68.2501 68.25H26.3655V1.75H68.2501V68.25Z" fill="#650340"/>
<path id="Vector_3" d="M33.5835 52.0925H42.507C42.9902 52.0925 43.382 51.7012 43.382 51.2175C43.382 50.7339 42.9902 50.3425 42.507 50.3425H33.5835C33.1003 50.3425 32.7085 50.7339 32.7085 51.2175C32.7085 51.7012 33.1003 52.0925 33.5835 52.0925Z" fill="#650340"/>
<path id="Vector_4" d="M61.0323 50.3425H52.1089C51.6257 50.3425 51.2339 50.7339 51.2339 51.2175C51.2339 51.7012 51.6257 52.0925 52.1089 52.0925H61.0323C61.5156 52.0925 61.9073 51.7012 61.9073 51.2175C61.9073 50.7339 61.5156 50.3425 61.0323 50.3425Z" fill="#650340"/>
<path id="Vector_5" d="M33.5835 44.5618H42.507C42.9902 44.5618 43.382 44.1704 43.382 43.6868C43.382 43.2031 42.9902 42.8118 42.507 42.8118H33.5835C33.1003 42.8118 32.7085 43.2031 32.7085 43.6868C32.7085 44.1704 33.1003 44.5618 33.5835 44.5618Z" fill="#650340"/>
<path id="Vector_6" d="M61.0323 42.8118H52.1089C51.6257 42.8118 51.2339 43.2031 51.2339 43.6868C51.2339 44.1704 51.6257 44.5618 52.1089 44.5618H61.0323C61.5156 44.5618 61.9073 44.1704 61.9073 43.6868C61.9073 43.2031 61.5156 42.8118 61.0323 42.8118Z" fill="#650340"/>
<path id="Vector_7" d="M33.5835 59.7571H42.507C42.9902 59.7571 43.382 59.3657 43.382 58.8821C43.382 58.3984 42.9902 58.0071 42.507 58.0071H33.5835C33.1003 58.0071 32.7085 58.3984 32.7085 58.8821C32.7085 59.3657 33.1003 59.7571 33.5835 59.7571Z" fill="#650340"/>
<path id="Vector_8" d="M61.0323 58.0071H52.1089C51.6257 58.0071 51.2339 58.3984 51.2339 58.8821C51.2339 59.3657 51.6257 59.7571 52.1089 59.7571H61.0323C61.5156 59.7571 61.9073 59.3657 61.9073 58.8821C61.9073 58.3984 61.5156 58.0071 61.0323 58.0071Z" fill="#650340"/>
<path id="Vector_9" d="M41.4888 19.6335H53.1278C53.611 19.6335 54.0028 19.2422 54.0028 18.7585C54.0028 18.2749 53.611 17.8835 53.1278 17.8835H41.4888C41.0056 17.8835 40.6138 18.2749 40.6138 18.7585C40.6138 19.2422 41.0056 19.6335 41.4888 19.6335Z" fill="#650340"/>
<path id="Vector_10" d="M41.4888 26.2107H53.1278C53.611 26.2107 54.0028 25.8193 54.0028 25.3357C54.0028 24.8521 53.611 24.4607 53.1278 24.4607H41.4888C41.0056 24.4607 40.6138 24.8521 40.6138 25.3357C40.6138 25.8193 41.0056 26.2107 41.4888 26.2107Z" fill="#650340"/>
<path id="Vector_11" d="M33.0051 27.8464C33.1064 28.0916 33.3136 28.277 33.5683 28.3514L39.225 30.0048L40.878 35.6616C40.9524 35.9162 41.1382 36.123 41.383 36.2247C41.6278 36.3246 41.9055 36.311 42.1384 36.1836L47.3076 33.3527L52.4769 36.1836C52.6076 36.2554 52.752 36.2913 52.8973 36.2913C53.0109 36.2913 53.1246 36.2691 53.2323 36.2247C53.4771 36.123 53.6629 35.9162 53.7373 35.6616L55.3903 30.0048L61.047 28.3514C61.3017 28.277 61.5089 28.0916 61.6101 27.8464C61.7118 27.6011 61.6964 27.3234 61.5691 27.091L58.7382 21.9222L61.5691 16.7525C61.6964 16.5201 61.7118 16.2424 61.6101 15.9971C61.5089 15.7519 61.3017 15.5665 61.047 15.4921L55.3903 13.8387L53.7373 8.18279C53.6629 7.92815 53.4771 7.72137 53.2323 7.61968C52.9866 7.518 52.7097 7.53252 52.4769 7.6607L47.3076 10.4916L42.1384 7.6607C41.906 7.53338 41.6287 7.51885 41.383 7.61968C41.1382 7.72137 40.9524 7.92815 40.878 8.18279L39.225 13.8387L33.5683 15.4921C33.3136 15.5665 33.1064 15.7519 33.0051 15.9971C32.9035 16.2424 32.9188 16.5201 33.0462 16.7525L35.8771 21.9222L33.0462 27.091C32.9188 27.3234 32.9035 27.6011 33.0051 27.8464ZM37.642 22.3426C37.7856 22.0803 37.7856 21.7641 37.642 21.5018L35.1038 16.867L40.1756 15.3845C40.4623 15.3007 40.6866 15.0768 40.7703 14.7897L42.2525 9.71831L46.8872 12.2562C47.1496 12.3997 47.4657 12.3997 47.728 12.2562L52.3628 9.71831L53.8449 14.7897C53.9287 15.0768 54.153 15.3007 54.4397 15.3845L59.5115 16.867L56.9732 21.5018C56.8297 21.7641 56.8297 22.0803 56.9732 22.3426L59.5115 26.9765L54.4397 28.459C54.153 28.5428 53.9287 28.7667 53.8449 29.0538L52.3628 34.126L47.728 31.5873C47.5969 31.5156 47.4525 31.4797 47.3076 31.4797C47.1628 31.4797 47.0184 31.5156 46.8872 31.5873L42.2525 34.126L40.7703 29.0538C40.6866 28.7667 40.4623 28.5428 40.1756 28.459L35.1038 26.9765L37.642 22.3426Z" fill="#650340"/>
</g>
</svg>
