<svg width="81" height="67" viewBox="0 0 81 67" fill="none" xmlns="http://www.w3.org/2000/svg">
<g id="Group 18">
<path id="Vector" d="M80.6752 51.4974C80.6752 51.4756 80.6752 51.4538 80.6752 51.432C80.6752 51.3122 80.65 51.2033 80.5996 51.1052L73.5657 37.422H76.1624C76.6792 37.422 77.1078 37.0515 77.1078 36.6049V31.8985C77.1078 31.4519 76.6792 31.0815 76.1624 31.0815H65.2587V9.21659C65.2587 7.51707 63.6578 6.1335 61.6913 6.1335H45.758V3.08309C45.758 1.38358 44.1571 0 42.1906 0H23.0681C21.1016 0 19.5007 1.38358 19.5007 3.08309V6.1335H3.56736C2.25638 6.1335 1.10928 6.75447 0.491614 7.68049C0.491614 7.69138 0.479009 7.69138 0.479009 7.70228C0.189083 8.14894 0 8.66098 0 9.21659V41.7034C0 43.4029 1.6009 44.7865 3.56736 44.7865H38.4594L35.2198 51.0943C35.1693 51.1924 35.1441 51.3013 35.1441 51.4211C35.1441 51.4429 35.1441 51.4647 35.1441 51.4865C35.1567 53.7525 36.0643 55.6699 37.7535 57.0317C39.2661 58.2519 41.2956 58.9164 43.4764 58.9164C45.6571 58.9164 47.6866 58.241 49.1993 57.0317C50.8884 55.6699 51.7834 53.7525 51.8086 51.4865C51.8086 51.4647 51.8086 51.4429 51.8086 51.4211C51.8086 51.3013 51.7834 51.1924 51.733 51.0943L44.7117 37.422H54.1658V59.9187C50.7876 60.8447 47.9513 62.9691 46.4765 65.8561C46.3504 66.1067 46.3756 66.4008 46.5521 66.6296C46.7286 66.8584 47.0311 67 47.3463 67H68.4857C68.8008 67 69.1033 66.8584 69.2798 66.6296C69.4563 66.4008 69.4815 66.1067 69.3555 65.8561C67.8806 62.9582 65.0444 60.8229 61.6661 59.9078V37.422H71.1202L64.099 51.1052C64.0485 51.2033 64.0233 51.3122 64.0233 51.432C64.0233 51.4538 64.0233 51.4756 64.0233 51.4974C64.0359 53.7634 64.9435 55.6808 66.6327 57.0426C68.1453 58.2628 70.1748 58.9273 72.3556 58.9273C76.465 58.9273 80.6374 56.3781 80.6752 51.4974ZM75.2296 35.7878H40.6023V32.7156H75.2296V35.7878ZM56.0819 31.0706C56.2205 30.308 56.9769 29.7197 57.9097 29.7197C58.8425 29.7197 59.5988 30.308 59.7375 31.0706H56.0819ZM21.3915 3.08309C21.3915 2.27691 22.1479 1.63415 23.0681 1.63415H42.1906C43.1234 1.63415 43.8671 2.2878 43.8671 3.08309V6.1335H21.3915V3.08309ZM3.56736 7.76764H61.6787C62.1829 7.76764 62.6115 7.96374 62.9266 8.26878C62.914 8.29057 62.9014 8.31236 62.8888 8.33415L58.4517 22.3878C58.25 23.0197 57.5819 23.4554 56.8256 23.4554H39.8964V22.3333C39.8964 20.7646 38.409 19.479 36.5938 19.479H28.6775C26.8623 19.479 25.3749 20.7646 25.3749 22.3333V23.4554H8.44568C7.68935 23.4554 7.02126 23.0197 6.81957 22.3878L2.34462 8.24699C2.64716 7.95285 3.08835 7.76764 3.56736 7.76764ZM38.0056 22.3442V26.2117C38.0056 26.8872 37.3753 27.4319 36.5938 27.4319H28.6775C27.896 27.4319 27.2657 26.8872 27.2657 26.2117V22.3442C27.2657 21.6688 27.896 21.1241 28.6775 21.1241H36.5938C37.3753 21.1241 38.0056 21.6688 38.0056 22.3442ZM43.4764 57.2932C41.7746 57.2932 40.1989 56.7811 39.0392 55.8442C37.9299 54.9509 37.2871 53.7089 37.1106 52.2491H49.8674C49.4514 55.7135 46.363 57.2932 43.4764 57.2932ZM37.5518 50.615L43.489 39.0561L49.4262 50.615H37.5518ZM39.3039 43.1633H3.56736C2.63455 43.1633 1.89082 42.5096 1.89082 41.7143V13.0078L5.00438 22.8236C5.42036 24.1636 6.83218 25.1005 8.44568 25.1005H25.3623V26.2226C25.3623 27.7914 26.8497 29.0769 28.6649 29.0769H36.5812C38.3964 29.0769 39.8838 27.7914 39.8838 26.2226V25.1005H56.813C58.4139 25.1005 59.8257 24.1745 60.2543 22.8345L63.3552 13.0405V31.0815H61.6157C61.4644 29.4146 59.8635 28.0964 57.8971 28.0964C55.9306 28.0964 54.3297 29.4146 54.1784 31.0815H39.6569C39.1401 31.0815 38.7115 31.4519 38.7115 31.8985V36.6049C38.7115 37.0515 39.1401 37.422 39.6569 37.422H42.2536L39.3039 43.1633ZM66.9226 65.3659H48.9093C50.8254 62.6968 54.2289 61.0408 57.9223 61.0408C61.6157 61.0408 65.0066 62.6968 66.9226 65.3659ZM59.7627 59.5265C59.1576 59.4502 58.5399 59.4067 57.9223 59.4067C57.292 59.4067 56.6617 59.4502 56.0567 59.5265V37.422H59.7627V59.5265ZM72.343 39.0561L78.2801 50.615H66.4058L72.343 39.0561ZM72.343 57.2932C69.4563 57.2932 66.368 55.7026 65.952 52.2491H78.7339C78.3054 55.7135 75.2296 57.2932 72.343 57.2932Z" fill="#650340"/>
</g>
</svg>
