<svg width="80" height="80" viewBox="0 0 80 80" fill="none" xmlns="http://www.w3.org/2000/svg">
<g id="Group">
<g id="Group_2">
<path id="Vector" d="M46.2235 69.3386C50.3915 69.3143 53.7816 65.5956 53.7815 61.0401V1.35551C53.7815 0.606271 53.1846 0 52.4483 0H7.57176C6.83548 0 6.23851 0.606271 6.23851 1.35551V55.5268H1.33324C0.596965 55.5268 0 56.133 0 56.8823V62.3453C0 66.2014 2.86765 69.3386 6.39215 69.3386H46.1968C46.2046 69.34 46.215 69.3386 46.2235 69.3386ZM8.905 2.71101H51.1151V61.0401C51.1153 64.114 48.905 66.6218 46.1024 66.6276C46.0995 66.6273 46.0957 66.6278 46.0928 66.6275C46.0471 66.6219 45.9814 66.6169 45.9181 66.6157C45.8654 66.6091 45.8003 66.6025 45.7085 66.5945C45.447 66.5654 45.1729 66.5062 44.8967 66.4198C44.8928 66.4185 44.8889 66.4168 44.885 66.4158C44.872 66.4118 44.859 66.4066 44.8459 66.4026C42.8637 65.707 41.5537 63.632 41.341 61.3168C41.2817 61.0353 41.3358 57.2659 41.3175 56.8822C41.3175 56.133 40.7206 55.5268 39.9843 55.5268H8.905V2.71101ZM6.39215 66.6276C4.3376 66.6276 2.66649 64.7069 2.66649 62.3453V58.2378C4.82138 58.2378 35.525 58.2378 38.651 58.2378C38.5562 61.1617 38.6139 64.3178 40.634 66.6276H6.39215Z" fill="#650340"/>
<path id="Vector_2" d="M79.9791 34.5962C79.9565 34.2445 79.81 33.9046 79.5537 33.6613C76.6805 31.0326 69.2146 24.202 66.4478 21.6682C66.1952 21.4476 65.8802 21.3508 65.5559 21.3201L57.783 21.3201C56.0455 21.3275 56.0345 24.0229 57.7831 24.0311L64.222 24.0311V34.6686C64.222 35.4179 64.819 36.0241 65.5553 36.0241H77.3286V77.289H38.0513V73.3985C38.0283 71.6176 35.4097 71.6182 35.3848 73.3986L35.3848 78.6445C35.3848 79.3937 35.9817 80 36.718 80H78.6618C79.3981 80 79.9951 79.3937 79.9951 78.6445C79.9791 78.5677 80.0256 34.6609 79.9791 34.5962ZM66.8885 25.7202C68.0274 26.7616 73.921 32.1571 75.184 33.3131H66.8885V25.7202Z" fill="#650340"/>
<path id="Vector_3" d="M57.6916 73.3349C58.4279 73.3349 59.0249 72.7287 59.0249 71.9794V62.6524C59.0249 61.9031 58.4279 61.2969 57.6916 61.2969C56.9554 61.2969 56.3584 61.9031 56.3584 62.6524V71.9794C56.3584 72.7287 56.9554 73.3349 57.6916 73.3349Z" fill="#650340"/>
<path id="Vector_4" d="M66.8891 71.9794V50.6593C66.883 48.8933 64.2301 48.8814 64.2227 50.6594L64.2227 71.9794C64.2288 73.7455 66.8817 73.7574 66.8891 71.9794Z" fill="#650340"/>
<path id="Vector_5" d="M74.7524 71.9793V62.6523C74.7455 60.8824 72.0933 60.8774 72.0859 62.6524L72.0859 71.9793C72.0929 73.7493 74.7451 73.7542 74.7524 71.9793Z" fill="#650340"/>
<path id="Vector_6" d="M27.5676 28.7331V27.1816C33.4769 27.6174 34.0545 18.9462 28.141 18.6554L24.3282 18.6554C23.0063 18.6966 22.285 16.9283 23.2496 16.0093C23.5392 15.7141 23.9226 15.5526 24.3282 15.5526H31.0009C32.7421 15.5479 32.7457 12.8473 31.0008 12.8416L27.5676 12.8416V11.2889C27.5676 10.5396 26.9706 9.93335 26.2343 9.93335C25.498 9.93335 24.9011 10.5396 24.9011 11.2889V12.8416C18.9923 12.4062 18.4146 21.0763 24.3283 21.3665L28.1411 21.3665C29.4629 21.3254 30.184 23.0936 29.2197 24.014C28.9301 24.3091 28.5467 24.4706 28.1411 24.4706H21.4684C19.7272 24.4754 19.7236 27.1759 21.4684 27.1816L24.9011 27.1816V28.7331C24.9084 30.506 27.5605 30.5055 27.5676 28.7331Z" fill="#650340"/>
<path id="Vector_7" d="M40.6744 20.0108C40.6744 11.9162 34.197 5.33057 26.2346 5.33057C7.07845 6.13704 7.08539 33.8892 26.2348 34.6924C34.197 34.6924 40.6744 28.1068 40.6744 20.0108ZM14.462 20.0108C14.462 13.4107 19.7429 8.04158 26.2346 8.04158C41.8428 8.66948 41.8372 31.3553 26.2345 31.9814C19.7429 31.9813 14.462 26.611 14.462 20.0108Z" fill="#650340"/>
<path id="Vector_8" d="M20.9921 38.6438C19.2501 38.6508 19.2474 41.3476 20.9921 41.3548L26.2345 41.3548C26.9708 41.3548 27.5678 40.7485 27.5678 39.9993C27.5678 39.2501 26.9708 38.6438 26.2345 38.6438H20.9921Z" fill="#650340"/>
<path id="Vector_9" d="M31.4561 39.9993C31.4561 40.7485 32.053 41.3548 32.7893 41.3548H44.5854C45.3217 41.3548 45.9186 40.7485 45.9186 39.9993C45.9186 39.2501 45.3217 38.6438 44.5854 38.6438H32.7893C32.053 38.6438 31.4561 39.2501 31.4561 39.9993Z" fill="#650340"/>
<path id="Vector_10" d="M35.4088 45.3062H20.9918C19.2527 45.3126 19.2449 48.0099 20.9919 48.0172L35.4088 48.0172C37.1479 48.0107 37.1558 45.3134 35.4088 45.3062Z" fill="#650340"/>
</g>
</g>
</svg>
