<svg width="93" height="84" viewBox="0 0 93 84" fill="none" xmlns="http://www.w3.org/2000/svg">
<path id="Vector" fill-rule="evenodd" clip-rule="evenodd" d="M80.761 39.4802C76.5145 39.4802 72.979 36.345 72.3557 32.268H89.1566C88.5332 36.345 85.0075 39.4802 80.761 39.4802ZM54.7075 3.42601H78.6962C79.8065 3.42601 80.7123 4.3279 80.7123 5.43921C80.7123 6.54858 79.8065 7.45143 78.6962 7.45143H57.8729C57.1424 5.933 56.0808 4.57142 54.7075 3.42601ZM56.0223 14.7016C58.0228 4.38273 45.5733 -0.64683 35.2575 5.36326C34.6633 5.71193 33.9815 5.82197 33.3095 5.68463C32.9671 5.61539 32.0097 5.38678 31.8778 5.42165C31.6246 5.48984 30.9526 5.99634 30.6214 6.2398C26.2094 9.53373 24.164 13.6624 25.2743 15.1555C26.3847 16.6476 30.933 15.8538 35.3451 12.5599C35.6373 12.3378 36.3386 11.8187 36.4554 11.6336L36.4652 10.6587C36.4554 9.60093 37.0301 8.64549 37.9456 8.1634C45.8308 4.03851 54.0517 8.81869 50.3442 16.6583C49.078 19.3406 46.5262 22.1066 42.7862 24.8746C38.0917 28.4091 35.501 32.8076 35.4912 37.2508C35.4815 41.7154 38.0722 46.1519 42.7959 49.737C48.7761 54.263 51.211 57.5121 51.211 60.9541C51.211 64.1857 49.039 67.2479 43.7699 71.3687H50.4513C54.3471 67.9676 56.3535 64.1721 56.2659 60.3668C56.1684 56.2918 53.6654 52.2664 49.0293 48.7251C43.4095 44.4951 40.7214 40.8944 40.5558 37.3988C40.1667 29.1114 54.0386 24.9781 56.0223 14.7016ZM43.3121 37.2693C43.1855 34.6123 45.5717 32.2242 48.4936 29.5409V44.7649C45.114 41.8849 43.4095 39.4208 43.3121 37.2693ZM68.041 74.6471V80.3389C68.041 80.6184 67.8073 80.857 67.5248 80.857H24.3199C24.0374 80.857 23.8037 80.6184 23.8037 80.3389V74.6471C23.8037 74.3656 24.0374 74.1289 24.3199 74.1289H67.5248C67.8073 74.1289 68.041 74.3656 68.041 74.6471ZM48.4546 60.9522C48.4449 62.9556 46.8574 65.2259 43.3511 68.1576V53.702C46.8574 56.6521 48.4546 58.9351 48.4546 60.9522ZM48.0358 11.2674C49.1267 13.0137 48.4352 16.4528 43.4387 20.8162V9.42368C45.5815 9.33016 47.2957 10.0841 48.0358 11.2674ZM13.3238 7.45143C12.2135 7.45143 11.3077 6.54858 11.3077 5.43921C11.3077 4.3279 12.2135 3.42601 13.3238 3.42601H29.813C28.1692 4.51968 26.4317 6.10042 25.2743 7.45143H13.3238ZM11.259 39.4802C7.01253 39.4802 3.48678 36.345 2.86342 32.268H19.6643C19.041 36.345 15.5055 39.4802 11.259 39.4802ZM11.259 12.2219L18.9728 29.5068H3.55496L11.259 12.2219ZM88.4651 29.5068H73.0472L80.761 12.2219L88.4651 29.5068ZM92.02 30.8713C92.0103 30.5626 91.9032 30.2801 91.7376 30.0522L82.2025 8.67567C82.9914 7.82544 83.4686 6.68683 83.4686 5.43921C83.4686 2.80659 81.3259 0.664871 78.6962 0.664871H49.3896C47.9092 0.240181 46.3217 0.0142226 44.666 0.000574584C42.942 -0.0130215 41.1889 0.214852 39.465 0.664871H13.3238C10.6941 0.664871 8.5514 2.80659 8.5514 5.43921C8.5514 6.68683 9.02866 7.82544 9.81757 8.67567L0.292179 30.0522C0.0685329 30.4275 0.022206 30.4745 0 30.9824C0 37.1904 5.05486 42.2404 11.259 42.2404C17.4729 42.2404 22.518 37.1904 22.518 30.9824C22.518 30.4924 22.4535 30.4197 22.2356 30.0522L13.392 10.2116H23.3653C22.0115 12.7322 21.8167 15.1331 23.0634 16.8063C25.3522 19.8685 31.3324 18.9939 36.9911 14.7717C39.1742 13.1432 39.2312 12.7102 39.2312 10.609C39.7182 10.3568 40.2052 10.1483 40.6824 9.97885V23.0124C30.1019 31.3159 30.0851 43.1509 40.5948 51.5164V70.3246C40.1468 70.6684 39.7182 71.0161 39.3189 71.3687H24.3199C22.518 71.3687 21.0474 72.8384 21.0474 74.6471V80.3389C21.0474 82.1456 22.518 83.6173 24.3199 83.6173H67.5248C69.3364 83.6173 70.7974 82.1456 70.7974 80.3389V74.6471C70.7974 72.8384 69.3364 71.3687 67.5248 71.3687H54.3958C57.5222 67.9345 59.1098 64.1585 59.0222 60.3016C58.915 55.536 56.2269 50.9369 51.25 46.9592V26.9998C54.5516 23.8841 57.7658 20.2571 58.7397 15.2236C59.0708 13.4763 59.0806 11.7904 58.7689 10.2116H78.6378L69.7844 30.0522C69.5664 30.4196 69.502 30.4927 69.502 30.9824C69.502 37.1904 74.5471 42.2404 80.761 42.2404C86.9652 42.2404 92.02 37.1904 92.02 30.9824V30.8713Z" fill="#650340"/>
</svg>
