<svg width="80" height="80" viewBox="0 0 80 80" fill="none" xmlns="http://www.w3.org/2000/svg">
<g id="Group">
<path id="Vector" d="M79.375 4.70957H78.0125C77.7 2.0667 75.4625 0 72.7375 0C70.0125 0 67.7875 2.0667 67.475 4.70957H66.1C65.75 4.70957 65.475 4.98513 65.475 5.33584V10.4838C65.475 10.8345 65.75 11.1101 66.1 11.1101H67.8125V13.2018H28.9125C28.75 13.2018 28.5875 13.2644 28.475 13.3897L26.55 15.3186L24.45 13.2143C24.3375 13.1016 24.175 13.0265 24.0125 13.0265H12.175V11.1226H13.8875C14.2375 11.1226 14.5125 10.847 14.5125 10.4963V5.33584C14.5125 4.98513 14.2375 4.70957 13.8875 4.70957H12.525C12.2125 2.0667 9.9875 0 7.25 0C4.525 0 2.3 2.0667 1.9875 4.70957H0.625C0.275 4.70957 0 4.99765 0 5.33584V10.4838C0 10.8345 0.275 11.1101 0.625 11.1101H2.3375V68.8899H0.625C0.275 68.8899 0 69.1655 0 69.5162V74.6642C0 75.0149 0.275 75.2904 0.625 75.2904H2C2.3125 77.9333 4.5375 80 7.2625 80C9.9875 80 12.225 77.9333 12.5375 75.2904H13.9C14.25 75.2904 14.525 75.0149 14.525 74.6642V69.5162C14.525 69.1655 14.25 68.8899 13.9 68.8899H12.175V65.9715H54.825C54.9875 65.9715 55.15 65.9089 55.2625 65.7836L57.1875 63.8547L59.2875 65.959C59.4 66.0717 59.5625 66.1469 59.725 66.1469H67.8125V68.8899H66.1C65.75 68.8899 65.475 69.1655 65.475 69.5162V74.6642C65.475 75.0149 65.75 75.2904 66.1 75.2904H67.475C67.7875 77.9333 70.0125 80 72.7375 80C75.4625 80 77.7 77.9333 78.0125 75.2904H79.375C79.725 75.2904 80 75.0149 80 74.6642V69.5162C80 69.1655 79.725 68.8899 79.375 68.8899H77.6625V11.1226H79.375C79.725 11.1226 80 10.847 80 10.4963V5.33584C80 4.99765 79.725 4.70957 79.375 4.70957ZM72.7375 1.25254C74.775 1.25254 76.4625 2.7556 76.7625 4.70957H68.7375C69.025 2.7556 70.7 1.25254 72.7375 1.25254ZM7.25 1.25254C9.2875 1.25254 10.975 2.7556 11.275 4.70957H3.25C3.55 2.7556 5.225 1.25254 7.25 1.25254ZM1.25 5.96211H13.2625V9.85752H1.25V5.96211ZM7.25 78.76C5.2125 78.76 3.55 77.2569 3.2375 75.303H11.2625C10.975 77.2569 9.2875 78.76 7.25 78.76ZM13.2625 74.0504H1.25V70.155H13.2625V74.0504ZM3.5875 68.8899V11.1226H10.925V68.9025H3.5875V68.8899ZM60 64.8943L57.6375 62.527C57.525 62.4143 57.3625 62.3391 57.2 62.3391C57.0375 62.3391 56.875 62.4018 56.7625 62.527L54.575 64.719H12.175V14.279H23.7375L26.1 16.6463C26.2125 16.759 26.375 16.8342 26.5375 16.8342C26.7 16.8342 26.8625 16.7716 26.975 16.6463L29.1625 14.4544H67.8125V64.8943H60ZM72.7375 78.76C70.7 78.76 69.0375 77.2569 68.725 75.303H76.75C76.4625 77.2569 74.775 78.76 72.7375 78.76ZM78.75 74.0504H66.7375V70.155H78.75V74.0504ZM76.4125 68.8899H69.075V11.1226H76.4125V68.8899ZM78.75 9.87005H66.7375V5.96211H78.75V9.87005Z" fill="#650340"/>
<path id="Vector_2" d="M15.8379 22.3705H64.1754C64.5254 22.3705 64.8004 22.0949 64.8004 21.7442C64.8004 21.3935 64.5254 21.1179 64.1754 21.1179H15.8379C15.4879 21.1179 15.2129 21.3935 15.2129 21.7442C15.2129 22.0949 15.4879 22.3705 15.8379 22.3705Z" fill="#650340"/>
<path id="Vector_3" d="M64.1629 29.3345H15.8379C15.4879 29.3345 15.2129 29.61 15.2129 29.9607C15.2129 30.3115 15.4879 30.587 15.8379 30.587H64.1754C64.5254 30.587 64.8004 30.3115 64.8004 29.9607C64.8004 29.61 64.5129 29.3345 64.1629 29.3345Z" fill="#650340"/>
<path id="Vector_4" d="M64.1629 37.5388H15.8379C15.4879 37.5388 15.2129 37.8144 15.2129 38.1651C15.2129 38.5158 15.4879 38.7914 15.8379 38.7914H64.1754C64.5254 38.7914 64.8004 38.5158 64.8004 38.1651C64.8004 37.8144 64.5129 37.5388 64.1629 37.5388Z" fill="#650340"/>
<path id="Vector_5" d="M39.8004 45.7429H15.8379C15.4879 45.7429 15.2129 46.0185 15.2129 46.3692C15.2129 46.7199 15.4879 46.9955 15.8379 46.9955H39.8004C40.1504 46.9955 40.4254 46.7199 40.4254 46.3692C40.4254 46.0185 40.1504 45.7429 39.8004 45.7429Z" fill="#650340"/>
<path id="Vector_6" d="M59.2124 54.1474C58.9999 53.8969 58.6749 53.7842 58.3499 53.8343C58.0249 53.8844 57.7624 54.1098 57.6499 54.3854L57.0249 55.8133L56.6624 55.926L55.0249 53.8969C54.8374 53.6589 54.5374 53.5337 54.2249 53.5587C53.9124 53.5838 53.6374 53.7591 53.4874 54.0347L52.6499 55.5377L52.2374 55.5878L49.5374 49.9263C49.0749 48.9494 47.8999 48.5235 46.9249 48.9869C46.0499 49.4003 45.5999 50.3647 45.8499 51.2916C47.1124 55.9636 47.5999 57.9551 47.6374 58.2683C47.6374 58.5939 47.8999 58.8695 48.2249 58.882C48.2374 58.882 48.2499 58.882 48.2624 58.882C48.5874 58.882 48.8624 58.619 48.8874 58.2933C48.8999 58.1305 48.9124 57.8174 47.0624 50.9659C46.9749 50.6278 47.1374 50.2771 47.4624 50.1267C47.8249 49.9639 48.2499 50.1142 48.4249 50.4775L51.3124 56.5523C51.4249 56.7903 51.6874 56.9406 51.9624 56.903L53.1374 56.7527C53.3374 56.7277 53.4999 56.6149 53.5999 56.4396L54.3624 55.0868L55.9749 57.0784C56.1374 57.2788 56.3999 57.3539 56.6499 57.2788L57.6874 56.9531C57.8624 56.903 57.9999 56.7778 58.0749 56.6024L58.6124 55.3749L60.7624 57.8675C60.9874 58.1305 61.3874 58.1556 61.6499 57.9301C61.9124 57.7046 61.9374 57.3038 61.7124 57.0408L59.2124 54.1474Z" fill="#650340"/>
</g>
</svg>
