<svg width="80" height="81" viewBox="0 0 80 81" fill="none" xmlns="http://www.w3.org/2000/svg">
<g id="Group 1000001877">
<path id="Vector" d="M40.5259 60.3691C51.5474 54.9644 57.3746 43.5928 56.5122 29.1699C56.5005 28.9766 56.4913 28.8418 56.4913 28.7769C56.4981 28.5073 56.3955 28.2471 56.2076 28.0542C56.0191 27.8613 55.7613 27.7524 55.4917 27.7524C49.4219 27.7524 49.1534 23.7891 49.1426 23.3447C49.1382 22.7959 48.6919 22.353 48.1426 22.353H31.9288C31.3794 22.353 30.9331 22.7959 30.9288 23.3447C30.9273 23.5249 30.8213 27.7524 24.5791 27.7524C24.313 27.7524 24.0581 27.8662 23.8702 28.0552C23.6827 28.2437 23.5782 28.5073 23.5791 28.7734C23.5796 28.8413 23.5713 28.9731 23.5606 29.1616C22.7496 43.5845 28.6123 54.959 39.6451 60.3691C39.7842 60.437 39.9346 60.4712 40.0855 60.4712C40.2364 60.4712 40.3868 60.437 40.5259 60.3691ZM25.5342 29.7222C30.9375 29.3716 32.3936 26.0522 32.7852 24.353H47.2862C47.6778 26.0527 49.1343 29.373 54.5396 29.7227C55.4493 47.5576 46.0982 55.2637 40.0855 58.3525C34.0655 55.2607 24.6934 47.5527 25.5342 29.7222Z" fill="#650340"/>
<path id="Vector_2" d="M10.4336 73.772C9.96448 71.3447 7.82941 69.5044 5.26709 69.5044C2.36279 69.5044 0 71.8672 0 74.772C0 77.6763 2.36279 80.0391 5.26709 80.0391C7.82941 80.0391 9.96442 78.1989 10.4336 75.772H22.0415C22.3354 75.772 22.6147 75.6426 22.8047 75.418L31.478 65.1671C34.1559 66.0733 37.02 66.5723 40 66.5723C42.9802 66.5723 45.8443 66.0732 48.5224 65.1669L57.1953 75.418C57.3853 75.6426 57.6646 75.772 57.9585 75.772H69.5664C70.0356 78.1989 72.1706 80.0391 74.7329 80.0391C77.6372 80.0391 80 77.6763 80 74.772C80 71.8672 77.6372 69.5044 74.7329 69.5044C72.1706 69.5044 70.0355 71.3447 69.5664 73.772H58.4224L50.5032 64.4121C59.6794 60.4628 66.2072 51.505 66.6307 41H69.5565C69.9869 43.4748 72.1368 45.3662 74.7329 45.3662C77.6372 45.3662 80 43.0034 80 40.0986C80 37.1943 77.6372 34.8315 74.7329 34.8315C72.2054 34.8315 70.0917 36.622 69.5845 39H66.635C66.2797 28.5303 59.862 19.577 50.7861 15.5441L58.6343 6.26709H69.5664C70.0355 8.6944 72.1706 10.5347 74.7329 10.5347C77.6372 10.5347 80 8.17188 80 5.26709C80 2.36279 77.6372 0 74.7329 0C72.1706 0 70.0356 1.84021 69.5664 4.26709H58.1704C57.8765 4.26709 57.5972 4.39648 57.4067 4.62109L48.8256 14.764C46.0614 13.7911 43.0927 13.2559 40 13.2559C36.9073 13.2559 33.9386 13.7911 31.1744 14.764L22.5933 4.62109C22.4028 4.39648 22.1235 4.26709 21.8296 4.26709H10.4336C9.96442 1.84021 7.82941 0 5.26709 0C2.36279 -1e-07 0 2.36279 0 5.26709C0 8.17188 2.36279 10.5347 5.26709 10.5347C7.82941 10.5347 9.96448 8.6944 10.4336 6.26709H21.3657L29.2139 15.5441C20.138 19.577 13.7203 28.5303 13.365 39H10.4155C9.90826 36.622 7.79462 34.8315 5.26709 34.8315C2.36279 34.8315 0 37.1943 0 40.0986C0 43.0034 2.36279 45.3662 5.26709 45.3662C7.86322 45.3662 10.0131 43.4748 10.4435 41H13.3693C13.7928 51.5051 20.3207 60.463 29.4971 64.4123L21.5776 73.772H10.4336ZM5.26709 78.0391C3.46582 78.0391 2 76.5732 2 74.772C2 72.9702 3.46582 71.5044 5.26709 71.5044C7.06885 71.5044 8.53467 72.9702 8.53467 74.772C8.53467 76.5732 7.06885 78.0391 5.26709 78.0391ZM74.7329 71.5044C76.5342 71.5044 78 72.9702 78 74.772C78 76.5732 76.5342 78.0391 74.7329 78.0391C72.9312 78.0391 71.4653 76.5732 71.4653 74.772C71.4653 72.9702 72.9312 71.5044 74.7329 71.5044ZM74.7329 36.8315C76.5342 36.8315 78 38.2974 78 40.0986C78 41.9004 76.5342 43.3662 74.7329 43.3662C72.9312 43.3662 71.4653 41.9004 71.4653 40.0986C71.4653 38.2974 72.9312 36.8315 74.7329 36.8315ZM74.7329 2C76.5342 2 78 3.46582 78 5.26709C78 7.06885 76.5342 8.53467 74.7329 8.53467C72.9312 8.53467 71.4653 7.06885 71.4653 5.26709C71.4653 3.46582 72.9312 2 74.7329 2ZM5.26709 8.53467C3.46582 8.53467 2 7.06885 2 5.26709C2 3.46582 3.46582 2 5.26709 2C7.06885 2 8.53467 3.46582 8.53467 5.26709C8.53467 7.06885 7.06885 8.53467 5.26709 8.53467ZM5.26709 43.3662C3.46582 43.3662 2 41.9004 2 40.0986C2 38.2974 3.46582 36.8315 5.26709 36.8315C7.06885 36.8315 8.53467 38.2974 8.53467 40.0986C8.53467 41.9004 7.06885 43.3662 5.26709 43.3662ZM15.3418 39.9141C15.3418 26.3174 26.4033 15.2559 40 15.2559C53.5967 15.2559 64.6582 26.3174 64.6582 39.9141C64.6582 53.5107 53.5967 64.5723 40 64.5723C26.4033 64.5723 15.3418 53.5107 15.3418 39.9141Z" fill="#650340"/>
</g>
</svg>
