<svg width="78" height="53" viewBox="0 0 78 53" fill="none" xmlns="http://www.w3.org/2000/svg">
<g id="Group 1000001897">
<path id="Vector" d="M19.7222 37.0057C19.9438 37.1165 20.1654 37.2273 20.387 37.2273C20.6085 37.2273 20.8301 37.1165 21.0517 37.0057C33.0176 27.9205 33.5716 13.0739 33.5716 12.5199C33.5716 12.1875 33.4608 11.8551 33.2392 11.7443C33.0176 11.5227 32.6852 11.412 32.3529 11.412C32.3529 11.412 28.0318 11.6335 26.1483 8.53127C25.9267 8.19889 25.5943 7.97729 25.262 7.97729H15.4012C14.958 7.97729 14.5148 8.30968 14.2932 8.75286C14.2932 8.86366 13.296 11.412 8.31025 11.7443C7.75627 11.7443 7.20229 12.2983 7.31309 12.8523C7.20229 13.5171 7.75627 27.9205 19.7222 37.0057ZM15.9551 10.1932H24.5972C26.4807 12.7415 29.583 13.4063 31.2449 13.5171C30.9125 16.9517 29.029 27.5881 20.387 34.7898C11.6341 27.6989 9.86138 17.1733 9.529 13.8495C13.5176 13.2955 15.2904 11.3012 15.9551 10.1932Z" fill="#650340"/>
<path id="Vector_2" d="M20.3858 23.0456L23.1557 24.3752L22.7125 21.4945L24.9284 19.3894L21.8262 18.9462L20.3858 16.2871L18.9455 18.9462L15.7324 19.3894L18.0591 21.4945L17.5051 24.3752L20.3858 23.0456Z" fill="#650340"/>
<path id="Vector_3" d="M30.8008 40.9944H9.97124C9.30646 40.9944 8.86328 41.4376 8.86328 42.1023C8.86328 42.7671 9.30646 43.2103 9.97124 43.2103H30.8008C31.4656 43.2103 31.9087 42.7671 31.9087 42.1023C31.9087 41.4376 31.3548 40.9944 30.8008 40.9944Z" fill="#650340"/>
<path id="Vector_4" d="M68.0279 40.9944H47.3091C46.6444 40.9944 46.2012 41.4376 46.2012 42.1023C46.2012 42.7671 46.6444 43.2103 47.3091 43.2103H68.1387C68.8034 43.2103 69.2466 42.7671 69.2466 42.1023C69.2466 41.4376 68.6926 40.9944 68.0279 40.9944Z" fill="#650340"/>
<path id="Vector_5" d="M47.3091 35.1223H68.1387C68.8034 35.1223 69.2466 34.6791 69.2466 34.0143V9.97172C69.2466 9.30695 68.8034 8.86377 68.1387 8.86377H47.3091C46.6444 8.86377 46.2012 9.30695 46.2012 9.97172V34.1251C46.2012 34.6791 46.6444 35.1223 47.3091 35.1223ZM48.4171 11.0797H67.0307V33.0172H65.5904C65.4796 29.5825 63.2637 26.591 60.0506 25.5939C61.7125 24.7075 62.9313 23.0456 62.9313 21.0513C62.9313 18.1706 60.6046 15.8439 57.7239 15.8439C54.8432 15.8439 52.5165 18.1706 52.5165 21.0513C52.5165 23.0456 53.6245 24.8183 55.3972 25.5939C52.1841 26.591 49.9682 29.4717 49.8574 33.0172H48.4171V11.0797Z" fill="#650340"/>
<path id="Vector_6" d="M76.7812 0H1.10795C0.443182 0 0 0.443182 0 1.10795V51.0767C0 51.7415 0.443182 52.1847 1.10795 52.1847H76.892C77.5568 52.1847 78 51.7415 78 51.0767V1.10795C77.8892 0.443182 77.446 0 76.7812 0ZM2.21591 2.21591H38.0028V49.9688H2.21591V2.21591ZM75.6733 49.9688H40.2188V2.21591H75.6733V49.9688Z" fill="#650340"/>
</g>
</svg>
