<svg width="80" height="80" viewBox="0 0 80 80" fill="none" xmlns="http://www.w3.org/2000/svg">
<g id="Group 1000001891">
<path id="Vector" d="M1 33.6113H1.42511L2.7002 79.0283C2.71533 79.5693 3.1582 80 3.69971 80H13.9688C14.5103 80 14.9531 79.5693 14.9683 79.0283L16.2433 33.6113H16.6685C17.2207 33.6113 17.6685 33.1641 17.6685 32.6113V11.4449C20.1583 11.8767 22.062 14.039 22.062 16.6504V32.6113C22.062 33.1641 22.5098 33.6113 23.062 33.6113C23.6143 33.6113 24.062 33.1641 24.062 32.6113V16.6504C24.062 12.9336 21.2665 9.86292 17.6685 9.41553V8.83398C17.6685 3.96289 13.7056 0 8.83447 0C3.96289 0 0 3.96289 0 8.83398V32.6113C0 33.1641 0.447754 33.6113 1 33.6113ZM15.6685 31.6113H2V11.3535H15.6685V31.6113ZM12.9966 78H4.67188L3.42572 33.6113H14.2427L12.9966 78ZM8.83447 2C12.6025 2 15.6685 5.06543 15.6685 8.83398V9.35352H2V8.83398C2 5.06543 5.06592 2 8.83447 2Z" fill="#650340"/>
<path id="Vector_2" d="M79 0H29.1318C28.5796 0 28.1318 0.447266 28.1318 1V79C28.1318 79.5527 28.5796 80 29.1318 80H79C79.5522 80 80 79.5527 80 79V1C80 0.447266 79.5522 0 79 0ZM78 78H30.1318V2H78V78Z" fill="#650340"/>
<path id="Vector_3" d="M38.3809 59.5342H48.5791C49.1313 59.5342 49.5791 59.0869 49.5791 58.5342C49.5791 57.9814 49.1313 57.5342 48.5791 57.5342H38.3809C37.8286 57.5342 37.3809 57.9814 37.3809 58.5342C37.3809 59.0869 37.8286 59.5342 38.3809 59.5342Z" fill="#650340"/>
<path id="Vector_4" d="M69.751 57.5342H59.5527C59.0005 57.5342 58.5527 57.9814 58.5527 58.5342C58.5527 59.0869 59.0005 59.5342 59.5527 59.5342H69.751C70.3032 59.5342 70.751 59.0869 70.751 58.5342C70.751 57.9814 70.3032 57.5342 69.751 57.5342Z" fill="#650340"/>
<path id="Vector_5" d="M38.3809 50.9277H48.5791C49.1313 50.9277 49.5791 50.4805 49.5791 49.9277C49.5791 49.375 49.1313 48.9277 48.5791 48.9277H38.3809C37.8286 48.9277 37.3809 49.375 37.3809 49.9277C37.3809 50.4805 37.8286 50.9277 38.3809 50.9277Z" fill="#650340"/>
<path id="Vector_6" d="M69.751 48.9277H59.5527C59.0005 48.9277 58.5527 49.375 58.5527 49.9277C58.5527 50.4805 59.0005 50.9277 59.5527 50.9277H69.751C70.3032 50.9277 70.751 50.4805 70.751 49.9277C70.751 49.375 70.3032 48.9277 69.751 48.9277Z" fill="#650340"/>
<path id="Vector_7" d="M38.3809 68.2939H48.5791C49.1313 68.2939 49.5791 67.8467 49.5791 67.2939C49.5791 66.7412 49.1313 66.2939 48.5791 66.2939H38.3809C37.8286 66.2939 37.3809 66.7412 37.3809 67.2939C37.3809 67.8467 37.8286 68.2939 38.3809 68.2939Z" fill="#650340"/>
<path id="Vector_8" d="M69.751 66.2939H59.5527C59.0005 66.2939 58.5527 66.7412 58.5527 67.2939C58.5527 67.8467 59.0005 68.2939 59.5527 68.2939H69.751C70.3032 68.2939 70.751 67.8467 70.751 67.2939C70.751 66.7412 70.3032 66.2939 69.751 66.2939Z" fill="#650340"/>
<path id="Vector_9" d="M47.415 22.4385H60.7168C61.269 22.4385 61.7168 21.9912 61.7168 21.4385C61.7168 20.8857 61.269 20.4385 60.7168 20.4385H47.415C46.8628 20.4385 46.415 20.8857 46.415 21.4385C46.415 21.9912 46.8628 22.4385 47.415 22.4385Z" fill="#650340"/>
<path id="Vector_10" d="M47.415 29.9551H60.7168C61.269 29.9551 61.7168 29.5078 61.7168 28.9551C61.7168 28.4023 61.269 27.9551 60.7168 27.9551H47.415C46.8628 27.9551 46.415 28.4023 46.415 28.9551C46.415 29.5078 46.8628 29.9551 47.415 29.9551Z" fill="#650340"/>
<path id="Vector_11" d="M37.7197 31.8241C37.8355 32.1043 38.0723 32.3163 38.3633 32.4012L44.8281 34.2909L46.7173 40.7557C46.8023 41.0467 47.0147 41.2831 47.2945 41.3993C47.5742 41.5135 47.8916 41.4979 48.1577 41.3524L54.0655 38.117L59.9732 41.3524C60.1226 41.4344 60.2876 41.4754 60.4536 41.4754C60.5835 41.4754 60.7134 41.45 60.8364 41.3993C61.1162 41.2831 61.3286 41.0467 61.4136 40.7557L63.3028 34.2909L69.7676 32.4012C70.0586 32.3163 70.2954 32.1043 70.4112 31.8241C70.5274 31.5438 70.5098 31.2264 70.3643 30.9608L67.1289 25.0536L70.3643 19.1454C70.5098 18.8797 70.5274 18.5624 70.4112 18.2821C70.2954 18.0018 70.0586 17.7899 69.7676 17.7049L63.3028 15.8153L61.4136 9.35141C61.3286 9.0604 61.1162 8.82407 60.8364 8.70786C60.5557 8.59165 60.2393 8.60825 59.9732 8.75473L54.0655 11.9901L48.1577 8.75473C47.8921 8.60923 47.5752 8.59262 47.2945 8.70786C47.0147 8.82407 46.8023 9.0604 46.7173 9.35141L44.8281 15.8153L38.3633 17.7049C38.0723 17.7899 37.8355 18.0018 37.7197 18.2821C37.6035 18.5624 37.6211 18.8797 37.7666 19.1454L41.002 25.0536L37.7666 30.9608C37.6211 31.2264 37.6035 31.5438 37.7197 31.8241ZM43.0191 25.534C43.1831 25.2342 43.1831 24.8729 43.0191 24.5731L40.1182 19.2762L45.9146 17.5819C46.2422 17.4862 46.4986 17.2303 46.5943 16.9022L48.2881 11.1063L53.585 14.0067C53.8848 14.1707 54.2461 14.1707 54.5459 14.0067L59.8428 11.1063L61.5366 16.9022C61.6323 17.2303 61.8887 17.4862 62.2163 17.5819L68.0127 19.2762L65.1118 24.5731C64.9478 24.8729 64.9478 25.2342 65.1118 25.534L68.0127 30.8299L62.2163 32.5243C61.8887 32.62 61.6323 32.8758 61.5366 33.204L59.8428 39.0008L54.5459 36.0995C54.396 36.0174 54.231 35.9764 54.0655 35.9764C53.8999 35.9764 53.7349 36.0174 53.585 36.0995L48.2881 39.0008L46.5943 33.204C46.4986 32.8758 46.2422 32.62 45.9146 32.5243L40.1182 30.8299L43.0191 25.534Z" fill="#650340"/>
</g>
</svg>
